<svg width="629" height="350" viewBox="0 0 629 350" fill="none" xmlns="http://www.w3.org/2000/svg">
<g clip-path="url(#clip0_11471_2)">
<path d="M429.58 69.76H337.58C337.03 69.76 336.58 69.31 336.58 68.76C336.58 68.21 337.03 67.76 337.58 67.76H429.58C430.13 67.76 430.58 68.21 430.58 68.76C430.58 69.31 430.13 69.76 429.58 69.76Z" fill="#D4D4D4"/>
<path d="M429.58 80.78H337.58C337.03 80.78 336.58 80.33 336.58 79.78C336.58 79.23 337.03 78.78 337.58 78.78H429.58C430.13 78.78 430.58 79.23 430.58 79.78C430.58 80.33 430.13 80.78 429.58 80.78Z" fill="#D4D4D4"/>
<path d="M372.42 91.8H337.57C337.02 91.8 336.57 91.35 336.57 90.8C336.57 90.25 337.02 89.8 337.57 89.8H372.42C372.97 89.8 373.42 90.25 373.42 90.8C373.42 91.35 372.97 91.8 372.42 91.8Z" fill="#D4D4D4"/>
<path d="M297.16 302.03H205.16C204.61 302.03 204.16 301.58 204.16 301.03C204.16 300.48 204.61 300.03 205.16 300.03H297.16C297.71 300.03 298.16 300.48 298.16 301.03C298.16 301.58 297.71 302.03 297.16 302.03Z" fill="#D4D4D4"/>
<path d="M297.16 313.05H205.16C204.61 313.05 204.16 312.6 204.16 312.05C204.16 311.5 204.61 311.05 205.16 311.05H297.16C297.71 311.05 298.16 311.5 298.16 312.05C298.16 312.6 297.71 313.05 297.16 313.05Z" fill="#D4D4D4"/>
<path d="M240.01 324.07H205.16C204.61 324.07 204.16 323.62 204.16 323.07C204.16 322.52 204.61 322.07 205.16 322.07H240.01C240.56 322.07 241.01 322.52 241.01 323.07C241.01 323.62 240.56 324.07 240.01 324.07Z" fill="#D4D4D4"/>
<path d="M552.08 349.08H377.48C356.06 349.08 338.69 331.71 338.69 310.29V168.18C338.69 146.76 356.06 129.39 377.48 129.39H552.08C573.5 129.39 590.87 146.76 590.87 168.18V310.29C590.87 331.71 573.5 349.08 552.08 349.08Z" fill="#F2884C"/>
<g opacity="0.4">
<path d="M552.08 349.08H377.48C356.06 349.08 338.69 331.71 338.69 310.29V168.18C338.69 146.76 356.06 129.39 377.48 129.39H552.08C573.5 129.39 590.87 146.76 590.87 168.18V310.29C590.87 331.71 573.5 349.08 552.08 349.08Z" fill="#F2884C"/>
</g>
<path d="M590.8 205.98H628.57L589.95 244.61L590.8 205.98Z" fill="#F2884C"/>
<g opacity="0.4">
<path d="M590.8 205.98H628.57L589.95 244.61L590.8 205.98Z" fill="#F2884C"/>
</g>
<path d="M257.41 43.47H78.72C56.97 43.47 39.34 61.1 39.34 82.85V146.53H0.790039L39.35 185.09V228.37C39.35 250.12 56.98 267.75 78.73 267.75H257.42C279.17 267.75 296.8 250.12 296.8 228.37V82.85C296.79 61.1 279.16 43.47 257.41 43.47Z" fill="#07B0F3"/>
<path d="M296.14 137.96C296.14 137.96 300.65 132.49 303.07 131.73C305.49 130.96 310.18 127.33 310.79 128.83C311.4 130.33 307.64 132.63 307.84 134.34C308.04 136.05 319.8 138.79 319.73 140.6C319.66 142.41 316.96 146.78 312.48 146.28C307.99 145.78 296.61 143.08 294.28 144.24C291.93 145.41 296.14 137.96 296.14 137.96Z" fill="#F3AB75"/>
<path d="M174.81 111.37C181.45 120.29 189.23 127.34 197.22 132.9C222.62 150.57 250.17 153.2 250.17 153.2C256.77 151.09 277.05 148.88 289.04 146.95C294.26 146.11 297.91 145.32 298.16 144.62L297.86 134.18C297.86 134.18 253.87 131.85 246.58 128.48C235.09 118.58 224.94 105.73 218.33 95.69C212.74 87.21 206.49 80.95 196.19 77.27C181.29 71.95 154.18 83.66 174.81 111.37Z" fill="#CDE9FF"/>
<path d="M194.979 126.33L197.219 132.9C222.619 150.57 250.169 153.2 250.169 153.2C255.469 153.2 277.049 148.88 289.039 146.95C288.569 146.99 256.409 149.5 249.299 148.77C242.139 148.03 208.799 119.14 208.799 119.14L194.979 126.33Z" fill="#9AC8E5"/>
<path d="M210.61 221.56C210.61 221.56 210.61 221.57 210.61 221.6C210.61 221.61 210.61 221.63 210.61 221.64C210.6 221.74 210.59 221.85 210.59 221.95C210.58 222.05 210.57 222.15 210.57 222.25C210.56 222.35 210.56 222.45 210.55 222.55C210.54 222.73 210.52 222.92 210.51 223.11C210.42 224.22 210.33 225.4 210.23 226.65C210.22 226.82 210.2 227 210.19 227.17C210.14 227.84 210.08 228.52 210.03 229.23C210.01 229.47 209.99 229.71 209.98 229.96C209.98 230.02 209.97 230.07 209.97 230.13C209.96 230.32 209.94 230.52 209.92 230.72C209.91 230.9 209.89 231.08 209.88 231.27C209.87 231.44 209.85 231.62 209.84 231.81C209.77 232.59 209.71 233.39 209.65 234.21C209.64 234.34 209.63 234.46 209.62 234.58C209.61 234.72 209.6 234.85 209.59 234.99C209.57 235.27 209.55 235.55 209.52 235.84C209.32 238.37 209.11 241.05 208.89 243.82C208.85 244.29 208.82 244.75 208.78 245.22C208.73 245.85 208.68 246.49 208.63 247.12C208.54 248.26 208.45 249.44 208.35 250.64C208.27 251.72 208.18 252.82 208.09 253.92C208.02 254.8 207.95 255.69 207.88 256.58C207.79 257.7 207.7 258.82 207.61 259.95C207.47 261.72 207.33 263.51 207.18 265.3C207.12 266.09 207.06 266.87 207 267.65H152.4C151.14 245.77 150.14 227.42 149.77 220.61C149.67 218.78 149.61 217.78 149.61 217.78L185.91 220.03H185.92L194.1 220.54L210.61 221.56Z" fill="#35488A"/>
<path d="M211.36 212.15C211.36 212.15 211.32 212.67 211.24 213.65C211.12 215.22 210.9 217.95 210.61 221.57V221.61C210.61 221.62 210.61 221.64 210.61 221.65C210.6 221.75 210.59 221.86 210.59 221.96C210.58 222.06 210.57 222.16 210.57 222.26C210.56 222.36 210.56 222.46 210.55 222.56C210.54 222.74 210.52 222.93 210.51 223.12C210.42 224.23 210.33 225.41 210.23 226.66C210.22 226.83 210.2 227.01 210.19 227.18C210.14 227.85 210.08 228.53 210.03 229.24C210.01 229.48 209.99 229.72 209.98 229.97C209.98 230.03 209.97 230.08 209.97 230.14C209.96 230.33 209.94 230.53 209.92 230.73C209.91 230.91 209.89 231.09 209.88 231.28C209.87 231.45 209.85 231.63 209.84 231.82C209.77 232.6 209.71 233.4 209.65 234.22C209.64 234.35 209.63 234.47 209.62 234.59C209.61 234.73 209.6 234.86 209.59 235C209.57 235.28 209.55 235.56 209.52 235.85C209.32 238.38 209.11 241.06 208.89 243.83C208.85 244.3 208.82 244.76 208.78 245.23C208.73 245.86 208.68 246.5 208.63 247.13C208.54 248.27 208.45 249.45 208.35 250.65C208.27 251.73 208.18 252.83 208.09 253.93C208.02 254.81 207.95 255.7 207.88 256.59C207.79 257.71 207.7 258.83 207.61 259.96C207.47 261.73 207.33 263.52 207.18 265.31C207.12 266.1 207.06 266.88 207 267.66H152.4C151.14 245.78 150.14 227.43 149.77 220.62C149.67 218.79 149.61 217.79 149.61 217.79L196.93 213.47L211.36 212.15Z" fill="#2C3A64"/>
<path d="M197.409 212.15C197.409 212.15 197.229 212.61 196.879 213.47C196.459 214.51 195.799 216.16 194.939 218.3C194.659 219 194.359 219.75 194.049 220.55C190.029 230.62 182.899 248.55 175.449 267.66H119.689C121.659 248.83 124.569 229.33 130.039 215.36C134.639 203.6 141.059 195.76 150.259 195.5C186.299 194.48 197.409 212.15 197.409 212.15Z" fill="#35488A"/>
<path d="M181.9 84.75C176.6 87.54 171.43 87.72 166.94 86.76C162.84 85.9 159.32 84.09 156.81 82.48C154.24 80.83 152.72 79.4 152.72 79.4C152.72 79.4 152.9 79.14 153.2 78.63C154.77 75.95 159.51 66.32 157.4 50.85C157.37 50.65 158.9 50.93 161.22 51.48C168.11 53.11 181.96 57.04 182.57 57.21C182.58 57.21 182.59 57.21 182.59 57.21C182.59 57.21 182.76 60.46 183.33 66.3C183.38 66.81 183.43 67.35 183.49 67.91C183.56 68.59 183.63 69.32 183.72 70.06C184.36 76.14 181.9 84.75 181.9 84.75Z" fill="#F3AB75"/>
<path d="M183.34 66.31C173.06 68.67 157.71 53.48 157.71 53.48C158.83 52.65 160.01 51.99 161.23 51.49C168.12 53.12 181.97 57.05 182.58 57.22C182.59 57.22 182.6 57.22 182.6 57.22C182.6 57.22 182.77 60.48 183.34 66.31Z" fill="#E08F54"/>
<path d="M186.83 56.41C186.83 56.41 182.6 57.93 177.21 58.65C169.33 59.71 158.96 59.09 155.7 49.55C150.21 33.49 143.21 23.87 159.35 17.31C167.99 13.8 173.52 13.61 177.27 14.95C180.53 16.11 182.46 18.42 183.91 20.7C187.06 25.62 193.36 53.6 186.83 56.41Z" fill="#F3AB75"/>
<path d="M196.63 21.97C187.28 28.69 174.35 22.08 170.33 23.87C166.32 25.65 165.59 32.39 165.52 34.52C165.45 36.66 165.17 38.47 159.71 37.19C158.82 36.98 158.17 37.04 157.73 37.31C155.47 38.65 158.36 45.16 159.23 46.56C159.23 46.56 160.48 51.22 157.7 53.49C157.36 53.76 151.89 56.15 138.72 35.98C136.65 32.81 134.67 25.68 137.87 18.82C141.06 11.95 154.42 5.31999 165.75 1.79999C169.99 0.479988 173.14 0.529985 175.6 1.42998C179.71 2.92998 181.9 6.80998 184.07 10.71C187.72 17.26 196.63 21.97 196.63 21.97Z" fill="#F2884C"/>
<path d="M216.04 197.59C215.29 207.49 213.19 214.59 208.61 214.59C208.61 214.59 188.21 221.77 163.84 221.96C159.08 221.99 152.33 221.07 146.73 220.13C141.01 219.16 136.49 218.19 136.49 218.19C131.59 217.06 126.18 214.03 126.91 208.44C127.32 205.28 127.61 201.15 127.8 196.36C128.34 183.41 128.25 165.58 128.32 148.5C128.37 138.01 128.47 127.82 128.82 119.22C128.82 119.22 124.01 85.44 129.35 79.9C135.61 73.42 153.99 71.42 155.14 71.67C155.49 71.6 155.83 71.51 156.19 71.45C156.19 71.45 171.84 80.27 183.47 73.74C183.47 73.74 183.58 73.76 183.8 73.79C186.63 74.24 200.77 77.51 205.65 82.67C207.33 84.44 214.06 95.35 214.24 107.33C214.5 124.03 213.84 142.99 213.84 143C214.01 145.71 214.3 149.21 214.62 153.2C214.96 157.45 215.34 162.26 215.66 167.26C215.82 169.79 215.97 172.36 216.09 174.94C216.44 182.89 216.55 190.89 216.04 197.59Z" fill="#CDE9FF"/>
<path d="M155.21 71.69C155.21 71.69 172.53 89.56 184.92 85.9C184.92 85.9 186.57 83.49 180.99 82.71C175.41 81.94 169.39 82.25 155.21 71.69Z" fill="#9AC8E5"/>
<path d="M186.96 46.04C186.96 46.04 187.3 48.12 182.47 49.78C182.47 49.78 178.41 51.17 177.67 49.04C177.66 49.04 180.89 45.97 186.96 46.04Z" fill="white"/>
<path d="M144.23 134.48C144.23 134.48 144.26 182.8 127.8 196.36C128.34 183.41 128.25 165.58 128.32 148.5L144.23 134.48Z" fill="#9AC8E5"/>
<path d="M93.5999 224.93C93.5999 224.93 85.2099 238.1 84.7399 243.13C84.4199 246.56 85.1899 260.06 86.8999 260.11C89.3099 260.18 91.7299 251.77 92.6599 249.59C93.5899 247.41 94.6799 245.7 95.6199 245.7C96.5499 245.7 93.5999 254.11 95.6199 253.18C97.6399 252.25 101.07 244.46 101.38 242.59C101.69 240.72 99.5499 234.73 100.6 232.38C101.65 230.02 93.5999 224.93 93.5999 224.93Z" fill="#F3AB75"/>
<path d="M130.94 78.07C130.94 78.07 119.61 83.42 110.11 123.05C102.95 152.92 89.2402 229.2 89.2402 229.2L100.84 233.97C100.84 233.97 143.3 136.48 149.38 122.77C155.45 109.06 130.94 78.07 130.94 78.07Z" fill="#CDE9FF"/>
<path d="M482.46 114.3C474.08 109.95 467.37 112.68 467.37 112.68C441.74 109.67 434.26 139.56 434.61 149.85C434.96 160.14 436.13 171.19 424.69 184.55C411.36 200.11 414.65 209.68 423.34 215.55C426.39 217.62 430.1 219.22 434 220.47C435.37 220.91 436.76 221.31 438.15 221.67C441.36 222.49 444.57 223.1 447.53 223.56C455.02 224.71 460.88 224.86 460.88 224.86C461.27 204.28 477.85 202.44 488.37 204.43C490.54 204.84 492.46 205.41 493.91 206.01C495.98 206.87 497.12 207.79 496.81 208.4C498 208.68 499.13 208.9 500.21 209.05C507.16 210.05 511.82 208.37 514.68 204.83C529.07 187.05 497.95 122.34 482.46 114.3Z" fill="#044058"/>
<path d="M383.58 242.88C383.58 242.88 379.07 236.02 375.44 235.88C371.81 235.75 365.08 233.86 365.62 235.21C366.16 236.56 370.33 236.69 370.73 237.5C371.13 238.31 364.54 239.52 362.66 239.65C360.78 239.78 356.34 239.65 356.47 240.59C356.6 241.53 364.47 245.43 370.03 244.9C375.58 244.36 382.45 246.51 382.45 246.51L383.58 242.88Z" fill="#F3AB75"/>
<path d="M448.77 245.1C448.77 245.1 446.32 249.95 441.87 255.53C436.51 262.24 428.25 269.99 417.88 271.52C412.93 272.25 408.08 271.19 403.63 269.21C403.62 269.21 403.61 269.21 403.61 269.21C391.01 263.62 381.54 250.76 381.54 250.76C379.32 244.7 382.95 240.6 382.95 240.6C382.95 240.6 408.38 246.32 410.8 245.11C413.22 243.9 427.35 203.2 430.71 198.08C434.08 192.97 445.54 190.31 445.54 190.31L448.77 245.1Z" fill="#F3F3F3"/>
<path d="M441.88 255.52C436.52 262.23 428.26 269.98 417.89 271.51C412.94 272.24 408.09 271.18 403.64 269.2C404.13 269.26 416.71 270.82 421.73 261.85C426.84 252.7 432.38 238.17 439.97 243.01C443.25 245.1 443.1 250.3 441.88 255.52Z" fill="#D3D3D3"/>
<path d="M509.04 307.39C500.07 287.27 494.58 281.49 495.63 275.25C496.41 270.6 493.26 188.58 493.26 188.58C492.2 188.25 490.06 187.95 488.89 187.7C485.21 186.88 482.16 184.3 480.9 180.75C479.37 176.47 478.16 170.16 478.19 162.24L477.04 162.47L457.71 166.3C457.71 166.3 458.15 172.38 458.16 178.11C458.16 178.16 458.16 178.21 458.16 178.25C458.18 183.23 454.92 187.62 450.14 189C447.7 189.7 445.58 190.31 445.58 190.31C445.58 190.31 438.48 210.57 437.13 231.38C435.78 252.19 450.03 261.23 437.02 302.83C423.73 345.29 514 318.51 509.04 307.39Z" fill="#F3AB75"/>
<path d="M457.71 166.29C457.71 166.29 458.15 172.37 458.16 178.1C468.97 177.8 474.69 167.93 477.03 162.46L457.71 166.29Z" fill="#DB8D53"/>
<path d="M454.1 171.71C454.1 171.71 479.69 172.13 479.7 156.19C479.72 140.25 483.03 129.57 466.7 128.63C450.36 127.69 447.18 133.76 445.88 139.08C444.58 144.41 447.44 171.19 454.1 171.71Z" fill="#F3AB75"/>
<path d="M455.04 128.25C455.04 128.25 462.05 146.95 472.8 149.71C483.55 152.47 488.21 149.59 488.21 149.59C488.21 149.59 479.96 143.04 478.25 131.6C478.25 131.61 460.33 119.35 455.04 128.25Z" fill="#044058"/>
<path d="M456.78 129.76C456.78 129.76 451.58 131.7 449.45 135.49C447.36 139.2 445.58 144.1 445.99 150.12C445.99 150.12 440.71 137.41 446.64 130.22C452.93 122.61 456.78 129.76 456.78 129.76Z" fill="#044058"/>
<path d="M459.66 161.83C459.66 161.83 457.89 164.15 454.36 163.99C451.52 163.86 450.42 161.39 450.42 161.39C450.42 161.39 455.65 160.12 459.66 161.83Z" fill="#EAF1F8"/>
<path d="M505.56 224.86C505.56 224.86 505.46 236.99 504.81 247.99C504.38 255.28 503.71 262.06 502.66 264.48C500.04 270.54 497.08 271.52 497.08 271.52L474.19 277.13L466.14 279.1L440.76 271.52C440.76 271.52 429.2 239.25 433.84 221.08C438.48 202.91 445.58 190.3 445.58 190.3C445.58 190.3 466.29 210.58 493.26 188.58L505.56 224.86Z" fill="#F3F3F3"/>
<path d="M504.81 247.99C504.38 255.28 503.71 262.06 502.66 264.48C500.04 270.54 497.08 271.52 497.08 271.52L474.19 277.13L464.25 274.21C464.25 274.21 497.44 269.18 493.76 240.62L504.81 247.99Z" fill="#D3D3D3"/>
<path d="M481.11 348.86H430.64C429.49 338.43 428.85 331.18 428.99 328.86C429.64 318.14 437.9 290.74 441.11 280.42C441.89 277.91 442.37 276.41 442.37 276.41H476.39C476.39 276.41 476.39 276.47 476.39 276.59C476.39 276.67 476.39 276.78 476.4 276.92C476.41 277.8 476.43 279.83 476.49 282.81C476.67 290.74 477.18 305.48 478.64 323.63C479.26 331.49 480.07 339.99 481.11 348.86Z" fill="#137ECE"/>
<path d="M518.34 348.86H460.97C457.92 340.55 454.46 332.51 450.57 325.3C449.78 323.82 448.97 322.38 448.13 320.97C444.36 314.61 448.04 293.91 450.06 284.2C450.17 283.68 450.27 283.18 450.37 282.72C450.4 282.57 450.43 282.43 450.46 282.28C450.9 280.28 451.18 279.09 451.18 279.09L456.2 278.65L458.01 278.5L462.77 278.09H462.78L474.12 277.1H474.13L474.33 277.08H474.34L476.39 276.9L495.63 275.23C495.63 275.23 496.69 276.66 498.35 279.07C503.71 286.89 515.23 305.06 516.59 318.35C517.22 324.44 517.75 335.86 518.34 348.86Z" fill="#07B0F3"/>
<path d="M459.089 162.25C459.089 162.25 458.649 164.13 453.979 163.84C453.979 163.84 450.059 163.6 450.179 161.53C450.179 161.53 453.979 160.07 459.089 162.25Z" fill="white"/>
<path d="M440.36 270.37C440.36 270.37 445.41 274.36 455.43 274.56C467.4 274.8 497.08 271.51 497.08 271.51C497.08 271.51 498.4 275.19 498.34 279.08C498.34 279.08 462.1 288.22 441.1 280.41C441.11 280.42 438.4 275.32 440.36 270.37Z" fill="#2C3A64"/>
<path d="M458.02 278.5C458 277.82 457.89 277.17 457.69 276.57C457.67 276.51 457.65 276.46 457.63 276.41C457.39 275.73 457.05 275.11 456.62 274.58C455.62 273.31 454.16 272.51 452.55 272.51C451.25 272.51 450.06 273.02 449.13 273.88H449.12C449.08 273.91 449.05 273.94 449.02 273.98C448.34 274.63 447.8 275.46 447.47 276.41C447.22 277.12 447.08 277.89 447.08 278.7C447.08 280.06 447.47 281.32 448.13 282.35C448.63 283.12 449.29 283.76 450.05 284.21C450.8 284.65 451.65 284.89 452.54 284.89C453.91 284.89 455.16 284.32 456.13 283.36C457.28 282.23 458.01 280.56 458.01 278.7C458.02 278.63 458.02 278.57 458.02 278.5ZM456.21 278.7C456.21 280.99 454.74 282.88 452.86 283.06H452.85C452.75 283.07 452.66 283.08 452.56 283.08C452.2 283.08 451.86 283.02 451.53 282.9H451.52L451.51 282.89C451.13 282.76 450.78 282.55 450.46 282.29C449.52 281.5 448.9 280.18 448.9 278.7C448.9 277.86 449.1 277.08 449.44 276.41C449.85 275.61 450.47 274.99 451.2 274.63C451.5 274.49 451.82 274.4 452.15 274.35C452.28 274.33 452.41 274.32 452.55 274.32C452.87 274.32 453.18 274.37 453.48 274.46C454.21 274.69 454.85 275.18 455.33 275.85C455.34 275.85 455.34 275.86 455.34 275.86C455.47 276.03 455.58 276.21 455.67 276.4C456.01 277.06 456.21 277.82 456.21 278.65V278.7Z" fill="white"/>
<path d="M533.88 319.33C533.88 319.33 533.9 323.96 534.78 326.2C535.66 328.43 538.29 331.41 539.17 331.41C540.05 331.41 538.36 326.75 538.8 326.85C539.24 326.94 541.36 334.6 542.9 334.78C544.44 334.97 545.83 326.19 545.03 322.75C544.22 319.31 540.75 315.17 540.75 315.17L533.88 319.33Z" fill="#F3AB75"/>
<path d="M493.25 188.58C493.25 188.58 507.4 190.5 515.02 205.51C520.91 217.11 524.95 253.59 529.1 265.08C533.08 276.07 538.56 297.33 541.62 314.35C541.86 315.67 541.13 316.97 539.88 317.47L534.68 319.53C533.56 319.98 532.28 319.54 531.66 318.5C527.04 310.73 508.8 279.63 502.47 261.64C495.07 240.61 481.22 227.54 481.22 227.54L493.25 188.58Z" fill="#F3F3F3"/>
</g>
<defs>
<clipPath id="clip0_11471_2">
<rect width="629" height="350" fill="white"/>
</clipPath>
</defs>
</svg>
