<svg width="156" height="36" viewBox="0 0 156 36" fill="none" xmlns="http://www.w3.org/2000/svg">
<path d="M39.7735 18.6676C38.6145 18.6676 37.6718 17.7246 37.6718 16.5656C37.6718 15.4061 38.6145 14.4631 39.7735 14.4631C40.9325 14.4631 41.876 15.4061 41.876 16.5656C41.876 17.7246 40.9325 18.6676 39.7735 18.6676ZM23.6648 18.6676C22.5058 18.6676 21.5626 17.7246 21.5626 16.5656C21.5626 15.4061 22.5058 14.4631 23.6648 14.4631C24.8241 14.4631 25.7673 15.4061 25.7673 16.5656C25.7673 17.7246 24.8241 18.6676 23.6648 18.6676ZM39.99 12.6231C38.5165 12.5439 37.207 13.2785 36.4671 14.4169C35.7937 15.4528 34.5909 16.0206 33.3553 16.0206H30.0846C28.8487 16.0206 27.6454 15.4526 26.9717 14.4166C26.2313 13.278 24.9213 12.5436 23.4472 12.6231C21.4187 12.7327 19.7566 14.457 19.7175 16.4883C19.675 18.7003 21.462 20.5134 23.6648 20.5134C24.8941 20.5134 25.9918 19.9481 26.7153 19.064C27.3626 18.2736 28.3689 17.8664 29.3906 17.8664H34.0485C35.0702 17.8664 36.0765 18.2736 36.7235 19.064C37.447 19.9481 38.5445 20.5134 39.7735 20.5134C41.9763 20.5134 43.7641 18.6998 43.721 16.4872C43.6814 14.456 42.0188 12.7322 39.99 12.6231Z" fill="currentColor"/>
<path d="M18.0785 8.608C20.1002 8.608 22.0931 9.3062 23.6896 10.5742C24.2592 11.0263 25.0876 10.9326 25.5421 10.3614C25.9944 9.79155 25.8993 8.96212 25.3295 8.50924C23.2684 6.87255 20.6938 5.97155 18.0785 5.97155C11.6576 5.97155 6.43359 11.1953 6.43359 17.6161C6.43359 24.0372 11.6576 29.2612 18.0785 29.2612C21.407 29.2612 24.5798 27.8387 26.7832 25.3578C27.2664 24.8135 27.2176 23.9804 26.6731 23.4969C26.1278 23.0129 25.2954 23.0638 24.8122 23.607C23.1082 25.5244 20.6539 26.6245 18.0785 26.6245C13.1113 26.6245 9.07031 22.5835 9.07031 17.6161C9.07031 12.649 13.1113 8.608 18.0785 8.608Z" fill="currentColor"/>
<path d="M33.2915 20.1142C32.5569 19.9383 31.813 20.3885 31.634 21.1255C30.0152 27.8149 24.0734 32.487 17.1839 32.487C10.2432 32.487 4.29108 27.7721 2.70958 21.021C2.53688 20.2824 1.7967 19.825 1.05995 19.9975C0.32162 20.1704 -0.136273 20.909 0.0364276 21.6471C1.91025 29.6459 8.96165 35.2325 17.1839 35.2325C25.3449 35.2325 32.3847 29.6966 34.3029 21.7709C34.4811 21.0344 34.0283 20.2924 33.2915 20.1142Z" fill="currentColor"/>
<path d="M1.28779 14.0055C1.42589 14.0493 1.56559 14.0702 1.70343 14.0702C2.28543 14.0702 2.82598 13.6968 3.01136 13.1124C4.97945 6.91159 10.6759 2.74514 17.1862 2.74514C23.4798 2.74514 29.116 6.72965 31.2106 12.6595C31.2246 12.7089 31.2394 12.758 31.2563 12.8064C31.5061 13.5217 32.287 13.8999 33.0042 13.6472C33.7201 13.3976 34.0974 12.612 33.8473 11.8967C33.8333 11.8473 33.8186 11.7979 33.7998 11.7448C31.3178 4.71984 24.6409 -9.8404e-05 17.1862 -9.8404e-05C9.47415 -9.8404e-05 2.72643 4.93558 0.39471 12.2819C0.165499 13.0044 0.565297 13.7763 1.28779 14.0055Z" fill="currentColor"/>
<path d="M57.8585 9.62299V10.8484C57.8585 11.1921 57.5799 11.4704 57.2362 11.4704H52.8701C51.7134 11.4704 50.8577 11.8234 50.3023 12.529C49.6489 13.3585 49.3223 14.7536 49.3223 16.7136C49.3223 17.955 49.4756 18.8992 49.783 19.5459C50.0572 20.1207 50.4751 20.5098 51.0372 20.7121C51.4491 20.8626 52.0597 20.9375 52.8701 20.9375H57.2362C57.5799 20.9375 57.8585 21.2161 57.8585 21.5598V22.8241C57.8585 23.1678 57.5799 23.4464 57.2362 23.4464H52.7523C50.4919 23.4464 48.7895 22.8355 47.6464 21.6138C46.5489 20.4377 46 18.7324 46 16.498C46 14.1134 46.4804 12.3134 47.4407 11.0979C48.5449 9.70003 50.3415 9.00071 52.8309 9.00071H57.2362C57.5799 9.00071 57.8585 9.2793 57.8585 9.62299Z" fill="currentColor"/>
<path d="M63.4569 21.3782C64.143 21.3782 64.7277 21.1691 65.2114 20.751C65.8643 20.1891 66.1914 19.3331 66.1914 18.1832C66.1914 17.1379 65.9269 16.3278 65.3974 15.7527C64.9137 15.23 64.287 14.9686 63.516 14.9686C62.7187 14.9686 62.0717 15.2433 61.5755 15.7919C61.0526 16.3734 60.7911 17.1706 60.7911 18.1832C60.7911 19.1503 61.0396 19.9246 61.5363 20.5059C62.0326 21.0874 62.673 21.3782 63.4569 21.3782ZM63.4961 23.6713C62.1436 23.6713 61.0168 23.3709 60.1151 22.7699C59.3442 22.2537 58.7626 21.5416 58.3707 20.6332C58.0374 19.8558 57.8711 19.026 57.8711 18.1441C57.8711 16.6676 58.3022 15.4261 59.1647 14.4199C60.1839 13.2309 61.6276 12.6363 63.4961 12.6363C65.0317 12.6363 66.3123 13.0708 67.338 13.9395C68.5138 14.933 69.1018 16.3343 69.1018 18.1441C69.1018 19.7383 68.622 21.0418 67.6614 22.0545C66.6423 23.1325 65.254 23.6713 63.4961 23.6713Z" fill="currentColor"/>
<path d="M71.7685 23.446H70.6648C70.2039 23.446 69.8301 23.0723 69.8301 22.6111V13.6967C69.8301 13.2355 70.2039 12.8617 70.6648 12.8617H75.0732C76.6477 12.8617 77.781 13.1559 78.4739 13.7436C79.1662 14.3319 79.5128 15.3283 79.5128 16.7329V22.6111C79.5128 23.0723 79.139 23.446 78.6778 23.446H77.5152C77.054 23.446 76.6802 23.0723 76.6802 22.6111V17.0955C76.6802 16.3114 76.5824 15.8084 76.3863 15.5861C76.1642 15.3314 75.6545 15.204 74.8577 15.204H73.4383C72.9771 15.204 72.6035 15.5778 72.6035 16.0388V22.6111C72.6035 23.0723 72.2297 23.446 71.7685 23.446Z" fill="currentColor"/>
<path d="M89.5591 21.9544V22.752C89.5591 23.1354 89.2483 23.4459 88.8652 23.4459H85.4819C84.0967 23.4459 82.9764 23.1653 82.1204 22.6031C81.3951 22.1264 80.8662 21.4533 80.5329 20.5843C80.265 19.8852 80.1309 19.0717 80.1309 18.1439C80.1309 16.615 80.5135 15.3966 81.2776 14.4885C82.192 13.4042 83.5938 12.8616 85.4819 12.8616H88.8652C89.2483 12.8616 89.5591 13.1723 89.5591 13.5555V14.3534C89.5591 14.7365 89.2483 15.0472 88.8652 15.0472H85.8643C84.9496 15.0472 84.3092 15.1616 83.9434 15.3902C83.6682 15.5606 83.4747 15.8254 83.3627 16.1844C83.2275 16.6184 83.5811 17.0562 84.0358 17.0562H88.8652C89.2483 17.0562 89.5591 17.367 89.5591 17.7501V18.5968C89.5591 18.9799 89.2483 19.2907 88.8652 19.2907H84.013C83.5746 19.2907 83.2296 19.6979 83.3315 20.1246C83.414 20.4699 83.5575 20.7197 83.7619 20.8735C84.1048 21.1316 84.7992 21.2605 85.8443 21.2605H88.8652C89.2483 21.2605 89.5591 21.5713 89.5591 21.9544Z" fill="currentColor"/>
<path d="M96.312 21.1721H98.5573C98.9409 21.1721 99.2517 21.4828 99.2517 21.8665V22.7515C99.2517 23.1349 98.9409 23.4459 98.5573 23.4459H95.4887C93.6524 23.4459 92.2543 22.972 91.2943 22.025C90.3664 21.1101 89.9023 19.8294 89.9023 18.1831C89.9023 17.2752 90.0201 16.4941 90.2554 15.841C90.5752 14.9523 91.1111 14.2597 91.8623 13.763C92.7707 13.1622 93.9795 12.8616 95.4887 12.8616H98.5573C98.9409 12.8616 99.2517 13.1723 99.2517 13.556V14.4703C99.2517 14.8537 98.9409 15.1647 98.5573 15.1647H96.312C95.5603 15.1647 94.9821 15.22 94.5769 15.3313C94.015 15.4815 93.6003 15.759 93.3326 16.1642C93.019 16.6282 92.862 17.3009 92.862 18.1831C92.862 18.7711 92.9271 19.2414 93.0581 19.5944C93.2408 20.0909 93.5642 20.4665 94.0285 20.7215C94.5704 21.0219 95.332 21.1721 96.312 21.1721Z" fill="currentColor"/>
<path d="M100.551 15.1563H96.7255C96.3551 15.1563 96.0547 14.8559 96.0547 14.4853V13.5325C96.0547 13.1618 96.3551 12.8614 96.7255 12.8614H100.551C100.921 12.8614 101.222 12.5611 101.222 12.1907V9.67115C101.222 9.30048 101.522 9.0001 101.893 9.0001H103.344C103.714 9.0001 104.015 9.30048 104.015 9.67115V12.1907C104.015 12.5611 104.315 12.8614 104.686 12.8614H107.919C108.289 12.8614 108.589 13.1618 108.589 13.5325V14.4853C108.589 14.8559 108.289 15.1563 107.919 15.1563H104.686C104.315 15.1563 104.015 15.4567 104.015 15.8274V19.2511C104.015 20.1136 104.201 20.6822 104.573 20.9564C104.92 21.2114 105.638 21.3387 106.729 21.3387H107.014V22.7747C107.014 23.1454 106.713 23.4458 106.343 23.4458H104.456C103.41 23.4458 102.61 23.1584 102.055 22.5833C101.499 22.0085 101.222 21.1984 101.222 20.1528V15.8274C101.222 15.4567 100.921 15.1563 100.551 15.1563Z" fill="currentColor"/>
<path d="M111.776 21.3389H115.274V19.1241H111.972C111.462 19.1241 111.09 19.1765 110.854 19.2808C110.475 19.451 110.286 19.7677 110.286 20.2315C110.286 20.6694 110.414 20.97 110.668 21.1332C110.884 21.2704 111.253 21.3389 111.776 21.3389ZM112.716 15.1564H108.041V12.8618H113.765C116.672 12.8618 118.126 14.1783 118.126 16.8111V23.4459H110.629C109.61 23.4459 108.806 23.1653 108.218 22.6031C107.63 22.0413 107.336 21.2769 107.336 20.3098C107.336 19.023 107.754 18.1244 108.59 17.6147C109.244 17.2163 110.237 17.0171 111.57 17.0171H115.274C115.274 16.2721 115.093 15.7577 114.73 15.4734C114.368 15.1894 113.696 15.1564 112.716 15.1564Z" fill="currentColor"/>
<path d="M120.08 22.4933V9.9531C120.08 9.42704 120.507 9.00034 121.033 9.00034H122.155C122.682 9.00034 123.108 9.42704 123.108 9.9531V13.8985C123.108 14.4245 123.535 14.8513 124.061 14.8513H127.722C128.248 14.8513 128.675 14.4245 128.675 13.8985V9.9531C128.675 9.42704 129.102 9.00034 129.628 9.00034H130.741C131.267 9.00034 131.694 9.42704 131.694 9.9531V22.4933C131.694 23.0193 131.267 23.446 130.741 23.446H129.628C129.102 23.446 128.675 23.0193 128.675 22.4933V18.352C128.675 17.8257 128.248 17.3993 127.722 17.3993H124.061C123.535 17.3993 123.108 17.8257 123.108 18.352V22.4933C123.108 23.0193 122.682 23.446 122.155 23.446H121.033C120.507 23.446 120.08 23.0193 120.08 22.4933Z" fill="currentColor"/>
<path d="M141.423 12.8617H142.142C142.714 12.8617 143.179 13.326 143.179 13.899V22.4087C143.179 22.9815 142.714 23.446 142.142 23.446H137.916C136.361 23.446 135.242 23.134 134.559 22.5099C133.877 21.886 133.535 20.9045 133.535 19.565V13.899C133.535 13.326 133.999 12.8617 134.572 12.8617H135.272C135.845 12.8617 136.309 13.326 136.309 13.899V19.3691C136.309 19.9637 136.397 20.3784 136.573 20.6137C136.835 20.9603 137.348 21.133 138.112 21.133H139.348C139.921 21.133 140.386 20.6687 140.386 20.0957V13.899C140.386 13.326 140.85 12.8617 141.423 12.8617Z" fill="currentColor"/>
<path d="M149.414 15.1645H148.572C148.085 15.1645 147.689 15.5596 147.689 16.047V20.3096C147.689 20.789 148.072 21.1806 148.552 21.1918C149.505 21.1918 150.198 21.1524 150.629 21.074C151.217 20.9695 151.652 20.7604 151.933 20.4468C152.246 20.1005 152.433 19.5812 152.491 18.8886C152.518 18.6274 152.531 18.353 152.531 18.0653C152.531 16.9548 152.253 16.1772 151.698 15.7328C151.221 15.3539 150.46 15.1645 149.414 15.1645ZM144.916 22.5632V9.88243C144.916 9.39503 145.311 8.99997 145.798 8.99997H146.807C147.294 8.99997 147.689 9.39503 147.689 9.88243V11.9789C147.689 12.4663 148.085 12.8613 148.572 12.8613H150.12C151.851 12.8613 153.155 13.2826 154.03 14.1256C154.984 15.0467 155.461 16.4776 155.461 18.4181C155.461 19.2349 155.317 19.9861 155.03 20.672C154.677 21.5085 154.148 22.1588 153.442 22.6224C152.606 23.1712 151.551 23.4457 150.277 23.4457H145.798C145.311 23.4457 144.916 23.0506 144.916 22.5632Z" fill="currentColor"/>
<path d="M133.701 35.0001H131.889V26.3721H133.701V30.5241L137.097 26.3721H139.269L135.801 30.5961L139.293 35.0001H136.977L133.701 30.7161V35.0001Z" fill="currentColor"/>
<path d="M141.847 35.0001V31.2081L138.595 26.3721H140.611L142.747 29.6841L144.895 26.3721H146.983L143.683 31.2081V35.0001H141.847Z" fill="currentColor"/>
<path d="M153.897 26.3721V27.8481H150.921C150.393 27.8481 149.973 27.9761 149.661 28.2321C149.349 28.4801 149.149 28.7601 149.061 29.0721C148.973 29.3761 148.909 29.6601 148.869 29.9241C148.829 30.1801 148.809 30.4361 148.809 30.6921V30.8481L148.797 30.9801C148.797 31.0921 148.801 31.2161 148.809 31.3521C148.817 31.4801 148.833 31.6401 148.857 31.8321C148.881 32.0161 148.933 32.2161 149.013 32.4321C149.101 32.6481 149.221 32.8481 149.373 33.0321C149.573 33.2401 149.789 33.3721 150.021 33.4281C150.253 33.4761 150.553 33.5001 150.921 33.5001H153.897V35.0001H150.849C150.273 35.0001 149.781 34.9521 149.373 34.8561C148.973 34.7521 148.569 34.5481 148.161 34.2441C147.673 33.8281 147.325 33.3281 147.117 32.7441C146.917 32.1601 146.817 31.5281 146.817 30.8481L146.841 30.3321C146.841 30.0201 146.873 29.7161 146.937 29.4201C147.001 29.1241 147.081 28.8441 147.177 28.5801C147.273 28.3161 147.385 28.0841 147.513 27.8841C147.641 27.6841 147.829 27.4601 148.077 27.2121C148.325 26.9641 148.625 26.7841 148.977 26.6721C149.329 26.5521 149.657 26.4721 149.961 26.4321C150.273 26.3921 150.585 26.3721 150.897 26.3721H153.897Z" fill="currentColor"/>
</svg>
