<svg width="407" height="90" viewBox="0 0 407 90" fill="none" xmlns="http://www.w3.org/2000/svg">
<g clip-path="url(#clip0_11131_14)">
<path d="M67.7098 59.5844C66.4643 59.3896 65.2756 59.5654 64.2327 60.0145C62.7198 60.6664 60.9691 60.3742 59.7911 59.2219L57.6973 57.1742C55.9926 55.5078 55.0335 53.2248 55.0335 50.8389V41.1792C55.0335 39.4669 55.7224 37.8276 56.9463 36.6292L62.3875 31.3084C63.2655 30.4482 64.4948 29.9937 65.7052 30.1912C66.4157 30.3075 67.1695 30.3021 67.9422 30.1479C70.5034 29.6421 72.5324 27.5294 72.916 24.9434C73.5509 20.6721 69.8928 17.0581 65.616 17.775C62.9467 18.224 60.8313 20.4314 60.4747 23.1175C60.3504 24.0642 60.4342 24.9786 60.6908 25.8171C61.1663 27.3698 60.6908 29.0551 59.5291 30.1885L56.822 32.8368C55.4306 34.1974 53.561 34.9602 51.6158 34.9602H38.4585C36.2296 34.9602 34.0926 34.0865 32.4986 32.5284L29.1431 29.2471C28.0975 28.2246 27.5815 26.7423 27.8949 25.314C28.0489 24.6107 28.084 23.8641 27.9787 23.0904C27.6031 20.3908 25.4634 18.1862 22.7752 17.7642C18.4957 17.0906 14.8619 20.7451 15.5562 25.0327C15.9939 27.7377 18.2336 29.8774 20.9488 30.2183C21.7323 30.3183 22.4915 30.2697 23.2048 30.0992C24.5772 29.7719 26.0226 30.0992 27.0331 31.0893L30.4507 34.43C32.4175 36.3533 33.5252 38.9881 33.5252 41.7391V51.6937C33.5252 54.204 32.5148 56.6088 30.7209 58.3644L29.2295 59.8224C28.0786 60.9477 26.3144 61.1777 24.9284 60.3607C23.7721 59.679 22.378 59.3599 20.9002 59.5546C18.1661 59.9171 15.9426 62.1055 15.5427 64.8376C14.8862 69.3199 18.955 73.0745 23.5019 71.8491C26.2253 71.116 28.0462 68.5354 28.0462 65.7113V65.6978C28.0462 65.1811 28.2542 64.6861 28.6244 64.3236L34.3006 58.7729C35.7947 57.3094 37.802 56.4925 39.8931 56.4925H50.4298C52.0913 56.4925 53.6853 57.1417 54.8741 58.3049L58.8645 62.2083C59.829 63.1523 60.426 64.4345 60.426 65.7844C60.426 66.2226 60.472 66.6716 60.5692 67.1288C61.115 69.6688 63.2304 71.657 65.797 72.0195C70.0414 72.6173 73.6211 68.9655 72.9052 64.6969C72.4648 62.0784 70.3359 59.982 67.7152 59.5763L67.7098 59.5844Z" fill="url(#paint0_linear_11131_14)"/>
<path d="M44.3272 23.2149C47.6695 23.2149 50.379 20.502 50.379 17.1555C50.379 13.809 47.6695 11.0962 44.3272 11.0962C40.9849 11.0962 38.2754 13.809 38.2754 17.1555C38.2754 20.502 40.9849 23.2149 44.3272 23.2149Z" fill="url(#paint1_linear_11131_14)"/>
<path d="M73.4727 51.7451C76.815 51.7451 79.5245 49.0323 79.5245 45.6858C79.5245 42.3393 76.815 39.6265 73.4727 39.6265C70.1304 39.6265 67.4209 42.3393 67.4209 45.6858C67.4209 49.0323 70.1304 51.7451 73.4727 51.7451Z" fill="url(#paint2_linear_11131_14)"/>
<path d="M17.042 51.7451C20.3844 51.7451 23.0938 49.0323 23.0938 45.6858C23.0938 42.3393 20.3844 39.6265 17.042 39.6265C13.6997 39.6265 10.9902 42.3393 10.9902 45.6858C10.9902 49.0323 13.6997 51.7451 17.042 51.7451Z" fill="url(#paint3_linear_11131_14)"/>
<path d="M46.0723 80.8921C49.4146 80.8921 52.1241 78.1792 52.1241 74.8328C52.1241 71.4863 49.4146 68.7734 46.0723 68.7734C42.73 68.7734 40.0205 71.4863 40.0205 74.8328C40.0205 78.1792 42.73 80.8921 46.0723 80.8921Z" fill="url(#paint4_linear_11131_14)"/>
<path d="M7.26487 31.0487C7.26487 33.0558 5.63844 34.6843 3.63378 34.6843C1.62912 34.6843 0 33.0558 0 31.0487C0 29.0415 1.62642 27.4131 3.63108 27.4131C5.63574 27.4131 7.26216 29.0415 7.26216 31.0487H7.26487Z" fill="url(#paint5_linear_11131_14)"/>
<path d="M32.9663 3.6356C32.9663 5.64275 31.3398 7.2712 29.3352 7.2712C27.3305 7.2712 25.7041 5.64275 25.7041 3.6356C25.7041 1.62845 27.3278 0 29.3325 0C31.3371 0 32.9636 1.62845 32.9636 3.6356H32.9663Z" fill="url(#paint6_linear_11131_14)"/>
<path d="M58.3889 8.66976C60.3943 8.66976 62.02 7.04204 62.02 5.03416C62.02 3.02627 60.3943 1.39856 58.3889 1.39856C56.3835 1.39856 54.7578 3.02627 54.7578 5.03416C54.7578 7.04204 56.3835 8.66976 58.3889 8.66976Z" fill="url(#paint7_linear_11131_14)"/>
<path d="M88.2807 29.0902C88.2807 31.0973 86.6543 32.7258 84.6496 32.7258C82.645 32.7258 81.0186 31.0973 81.0186 29.0902C81.0186 27.083 82.645 25.4546 84.6496 25.4546C86.6543 25.4546 88.2807 27.083 88.2807 29.0902Z" fill="url(#paint8_linear_11131_14)"/>
<path d="M88.8403 62.9359C88.8403 64.943 87.2139 66.5715 85.2092 66.5715C83.2045 66.5715 81.5781 64.943 81.5781 62.9359C81.5781 60.9287 83.2045 59.3003 85.2092 59.3003C87.2139 59.3003 88.8403 60.9287 88.8403 62.9359Z" fill="url(#paint9_linear_11131_14)"/>
<path d="M65.5893 86.3644C65.5893 88.3715 63.9629 90 61.9582 90C59.9536 90 58.3271 88.3715 58.3271 86.3644C58.3271 84.3572 59.9536 82.7288 61.9582 82.7288C63.9629 82.7288 65.5893 84.3572 65.5893 86.3644Z" fill="url(#paint10_linear_11131_14)"/>
<path d="M34.0922 85.2093C34.0922 87.2165 32.4658 88.8449 30.4612 88.8449C28.4565 88.8449 26.8301 87.2165 26.8301 85.2093C26.8301 83.2022 28.4565 81.5737 30.4612 81.5737C32.4658 81.5737 34.0922 83.2022 34.0922 85.2093Z" fill="url(#paint11_linear_11131_14)"/>
<path d="M7.64888 59.2571C7.64888 61.2642 6.02246 62.8927 4.0178 62.8927C2.01314 62.8927 0.386719 61.2642 0.386719 59.2571C0.386719 57.2499 2.01314 55.6215 4.0178 55.6215C6.02246 55.6215 7.64888 57.2499 7.64888 59.2571Z" fill="url(#paint12_linear_11131_14)"/>
<path d="M45.2592 66.5985C56.7738 66.5985 66.1082 57.2525 66.1082 45.7236C66.1082 34.1947 56.7738 24.8486 45.2592 24.8486C33.7446 24.8486 24.4102 34.1947 24.4102 45.7236C24.4102 57.2525 33.7446 66.5985 45.2592 66.5985Z" fill="#FF8946"/>
<path d="M51.8102 55.3131C54.8482 55.3131 57.3109 52.8473 57.3109 49.8056C57.3109 46.7639 54.8482 44.2981 51.8102 44.2981C48.7723 44.2981 46.3096 46.7639 46.3096 49.8056C46.3096 52.8473 48.7723 55.3131 51.8102 55.3131Z" fill="white"/>
<path d="M131.586 24.3834H145.146V63.65H131.586V59.2867C128.706 63.0116 124.807 64.8727 119.89 64.8727C117.11 64.8727 114.552 64.3479 112.217 63.3037C109.883 62.2596 107.846 60.7907 106.109 58.9026C104.372 57.0145 103.018 54.7963 102.048 52.2427C101.078 49.6919 100.595 46.9111 100.595 43.9003C100.595 41.0952 101.068 38.428 102.01 35.9015C102.953 33.375 104.269 31.1703 105.958 29.2795C107.646 27.3914 109.656 25.8982 111.993 24.8026C114.327 23.7071 116.91 23.158 119.742 23.158C124.51 23.158 128.457 24.8676 131.586 28.2867V24.3834ZM114.6 43.9003C114.6 45.1771 114.822 46.3619 115.27 47.4602C115.716 48.5585 116.324 49.516 117.094 50.3303C117.864 51.1472 118.783 51.7856 119.852 52.2427C120.92 52.7026 122.073 52.9325 123.316 52.9325C124.559 52.9325 125.637 52.7026 126.704 52.2427C127.771 51.7829 128.69 51.1472 129.462 50.3303C130.232 49.516 130.851 48.5693 131.324 47.4981C131.797 46.4269 132.032 45.2772 132.032 44.0545C132.032 42.8318 131.797 41.6687 131.324 40.5704C130.851 39.4749 130.23 38.5173 129.462 37.7004C128.692 36.8861 127.774 36.245 126.704 35.7879C125.637 35.328 124.507 35.0981 123.316 35.0981C122.125 35.0981 120.92 35.328 119.852 35.7879C118.783 36.2477 117.867 36.8861 117.094 37.7004C116.324 38.5173 115.716 39.4478 115.27 40.4947C114.822 41.5415 114.6 42.675 114.6 43.9003Z" fill="#00B2F6"/>
<path d="M356.092 24.3834H369.652V63.65H356.092V59.2867C353.212 63.0116 349.313 64.8727 344.396 64.8727C341.616 64.8727 339.058 64.3479 336.723 63.3037C334.389 62.2596 332.352 60.7907 330.615 58.9026C328.878 57.0145 327.524 54.7963 326.554 52.2427C325.584 49.6919 325.101 46.9111 325.101 43.9003C325.101 41.0952 325.573 38.428 326.516 35.9015C327.459 33.375 328.775 31.1703 330.463 29.2795C332.152 27.3914 334.162 25.8982 336.499 24.8026C338.833 23.7071 341.416 23.158 344.248 23.158C349.016 23.158 352.963 24.8676 356.092 28.2867V24.3834ZM339.106 43.9003C339.106 45.1771 339.328 46.3619 339.776 47.4602C340.222 48.5585 340.83 49.516 341.6 50.3303C342.37 51.1472 343.288 51.7856 344.358 52.2427C345.425 52.7026 346.579 52.9325 347.822 52.9325C349.065 52.9325 350.143 52.7026 351.21 52.2427C352.277 51.7829 353.196 51.1472 353.968 50.3303C354.738 49.516 355.357 48.5693 355.83 47.4981C356.303 46.4269 356.538 45.2772 356.538 44.0545C356.538 42.8318 356.303 41.6687 355.83 40.5704C355.357 39.4749 354.736 38.5173 353.968 37.7004C353.198 36.8861 352.28 36.245 351.21 35.7879C350.143 35.328 349.013 35.0981 347.822 35.0981C346.63 35.0981 345.425 35.328 344.358 35.7879C343.288 36.2477 342.373 36.8861 341.6 37.7004C340.83 38.5173 340.222 39.4478 339.776 40.4947C339.328 41.5415 339.106 42.675 339.106 43.9003Z" fill="#00B2F6"/>
<path d="M308.107 0.348999H321.667V63.8773H308.107V59.514C305.227 63.2389 301.329 65.1 296.412 65.1C293.632 65.1 291.073 64.5644 288.739 63.4932C286.405 62.422 284.368 60.9423 282.63 59.0542C280.893 57.1661 279.54 54.9479 278.57 52.3943C277.6 49.8435 277.116 47.087 277.116 44.1277C277.116 41.3225 277.576 38.6553 278.494 36.1288C279.413 33.6023 280.718 31.3977 282.406 29.5068C284.095 27.6187 286.118 26.1255 288.477 25.03C290.835 23.9344 293.432 23.3853 296.26 23.3853C301.029 23.3853 304.976 25.0949 308.105 28.5141V0.348999H308.107ZM291.122 44.1304C291.122 45.4072 291.343 46.592 291.792 47.6902C292.238 48.7885 292.846 49.7461 293.616 50.5603C294.385 51.3772 295.304 52.0156 296.374 52.4728C297.441 52.9326 298.595 53.1626 299.838 53.1626C301.08 53.1626 302.158 52.9326 303.225 52.4728C304.293 52.0129 305.211 51.3772 305.984 50.5603C306.754 49.7461 307.373 48.7993 307.845 47.7281C308.318 46.6569 308.553 45.5073 308.553 44.2846C308.553 43.0619 308.318 41.8987 307.845 40.8004C307.373 39.7049 306.751 38.7473 305.984 37.9304C305.214 37.1162 304.295 36.4751 303.225 36.0179C302.158 35.558 301.029 35.3281 299.838 35.3281C298.646 35.3281 297.514 35.558 296.447 36.0179C295.38 36.4778 294.461 37.1162 293.691 37.9304C292.921 38.7473 292.3 39.6779 291.83 40.7247C291.357 41.7716 291.122 42.905 291.122 44.1304Z" fill="#00B2F6"/>
<path d="M199.834 46.3512C199.834 52.3212 202.565 55.3049 208.028 55.3049C210.96 55.3049 215.131 54.3527 215.131 49.3727H228.169C228.169 60.4797 218.484 65.1026 207.955 65.1026C204.727 65.1026 201.771 64.6049 199.091 63.6095C196.408 62.614 194.112 61.1992 192.199 59.3625C190.286 57.5258 188.808 55.332 187.765 52.7811C186.723 50.2302 186.201 47.3737 186.201 44.2088C186.201 41.0439 186.696 37.998 187.692 35.3686C188.684 32.742 190.1 30.5077 191.94 28.6709C193.777 26.8342 196 25.4167 198.607 24.424C201.215 23.4285 204.157 22.9308 207.434 22.9308C210.711 22.9308 213.567 23.4285 216.149 24.424C218.732 25.4194 220.918 26.8612 222.707 28.7494C224.495 30.6375 225.859 32.9476 226.802 35.677C227.745 38.4064 228.218 41.4821 228.218 44.9013V46.3566H199.834V46.3512ZM215.363 38.3145C215.363 36.2234 213.95 31.8845 207.807 31.8845C201.663 31.8845 200.207 36.4669 200.207 38.3145H215.363Z" fill="#00B2F6"/>
<path d="M232.957 24.3834H246.441V29.358C248.278 27.0614 250.14 25.5195 252.028 24.727C253.917 23.9371 256.127 23.5394 258.658 23.5394C261.341 23.5394 263.637 23.9858 265.55 24.8784C267.46 25.7711 269.089 27.0344 270.429 28.6682C271.521 29.9964 272.267 31.4761 272.664 33.1072C273.061 34.7411 273.258 36.6022 273.258 38.6959V63.6473H259.774V43.822C259.774 41.8824 259.636 40.3135 259.363 39.1152C259.09 37.9168 258.607 36.9592 257.91 36.2451C257.315 35.6337 256.645 35.2009 255.9 34.944C255.154 34.6897 254.36 34.5598 253.517 34.5598C251.231 34.5598 249.48 35.2632 248.265 36.6644C247.046 38.0683 246.438 40.07 246.438 42.6723V63.6446H232.954V24.3834H232.957Z" fill="#00B2F6"/>
<path d="M401.265 34.4868C398.782 33.1614 396.348 32.4959 393.965 32.4959C392.722 32.4959 391.717 32.7529 390.947 33.2614C390.177 33.7727 389.793 34.4598 389.793 35.3281C389.793 35.788 389.856 36.1586 389.98 36.4372C390.101 36.7185 390.377 36.9863 390.798 37.2406C391.22 37.4976 391.841 37.7248 392.663 37.9304C393.481 38.136 394.562 38.3902 395.902 38.6959C399.628 39.4614 402.408 40.8275 404.245 42.7914C406.082 44.7552 407 47.2682 407 50.3304C407 52.627 406.555 54.6936 405.66 56.5304C404.766 58.3671 403.523 59.9117 401.935 61.1614C400.346 62.4112 398.433 63.3823 396.199 64.0694C393.965 64.7564 391.506 65.1027 388.823 65.1027C383.658 65.1027 378.568 63.5987 373.551 60.5852L378.468 50.7875C382.242 53.4412 385.817 54.7667 389.196 54.7667C390.439 54.7667 391.455 54.488 392.252 53.9254C393.046 53.3654 393.443 52.6513 393.443 51.783C393.443 51.2744 393.381 50.8524 393.257 50.5197C393.133 50.1897 392.871 49.8813 392.476 49.6C392.076 49.3214 391.495 49.0644 390.725 48.8345C389.955 48.6045 388.948 48.3638 387.708 48.1068C383.536 47.2412 380.618 45.9509 378.954 44.2413C377.29 42.5317 376.458 40.1729 376.458 37.1621C376.458 34.9683 376.855 32.9909 377.649 31.2299C378.444 29.469 379.586 27.9758 381.075 26.7531C382.564 25.5277 384.363 24.5863 386.476 23.9209C388.586 23.2581 390.934 22.9254 393.516 22.9254C397.736 22.9254 401.835 23.7667 405.809 25.4519L401.265 34.4841V34.4868Z" fill="#00B2F6"/>
<path d="M183.421 29.1497C183.021 28.2057 182.478 27.3779 181.781 26.6611C181.084 25.9469 180.279 25.387 179.361 24.9785C178.442 24.5701 177.461 24.3672 176.418 24.3672C175.376 24.3672 174.395 24.5728 173.476 24.9785C172.555 25.387 171.75 25.9496 171.056 26.6611C170.359 27.3752 169.813 28.2057 169.416 29.1497C169.019 30.0938 168.821 31.1028 168.821 32.174C168.821 33.2452 169.019 34.2542 169.416 35.1982C169.813 36.1423 170.359 36.9701 171.056 37.6869C171.75 38.401 172.558 38.9637 173.476 39.3694C174.395 39.7779 175.376 39.9808 176.418 39.9808C177.461 39.9808 178.442 39.7779 179.361 39.3694C180.279 38.961 181.084 38.401 181.781 37.6869C182.476 36.9728 183.021 36.1423 183.421 35.1982C183.818 34.2542 184.016 33.2452 184.016 32.174C184.016 31.1028 183.816 30.0938 183.421 29.1497Z" fill="#00B2F6"/>
<path d="M166.293 46.5026V24.3807H166.285V12.5947H152.8V24.3509H148.329V36.4398H152.8V42.3206H152.809V49.1833C152.809 54.4907 154.508 58.4725 157.912 61.1235C161.313 63.7771 166.393 65.1053 173.147 65.1053V53.7765C168.576 53.7765 166.293 51.3528 166.293 46.5053V46.5026Z" fill="#00B2F6"/>
<path d="M48.5693 39.9832C50.0249 37.459 49.1611 34.2313 46.64 32.7739C44.1189 31.3166 40.8952 32.1814 39.4397 34.7056L32.0586 47.5059C30.6031 50.0301 31.4669 53.2578 33.988 54.7152C36.5091 56.1725 39.7328 55.3077 41.1883 52.7834L48.5693 39.9832Z" fill="white"/>
</g>
<defs>
<linearGradient id="paint0_linear_11131_14" x1="71.5489" y1="91.55" x2="14.4782" y2="-5.68631" gradientUnits="userSpaceOnUse">
<stop stop-color="#00CCD3"/>
<stop offset="0.13" stop-color="#04C3D3"/>
<stop offset="0.34" stop-color="#0FADD3"/>
<stop offset="0.59" stop-color="#2189D4"/>
<stop offset="0.89" stop-color="#3A57D5"/>
<stop offset="1" stop-color="#4542D6"/>
</linearGradient>
<linearGradient id="paint1_linear_11131_14" x1="83.7044" y1="84.4141" x2="26.6337" y2="-12.8223" gradientUnits="userSpaceOnUse">
<stop stop-color="#00CCD3"/>
<stop offset="0.13" stop-color="#04C3D3"/>
<stop offset="0.34" stop-color="#0FADD3"/>
<stop offset="0.59" stop-color="#2189D4"/>
<stop offset="0.89" stop-color="#3A57D5"/>
<stop offset="1" stop-color="#4542D6"/>
</linearGradient>
<linearGradient id="paint2_linear_11131_14" x1="92.9655" y1="78.9796" x2="35.8947" y2="-18.2567" gradientUnits="userSpaceOnUse">
<stop stop-color="#00CCD3"/>
<stop offset="0.13" stop-color="#04C3D3"/>
<stop offset="0.34" stop-color="#0FADD3"/>
<stop offset="0.59" stop-color="#2189D4"/>
<stop offset="0.89" stop-color="#3A57D5"/>
<stop offset="1" stop-color="#4542D6"/>
</linearGradient>
<linearGradient id="paint3_linear_11131_14" x1="50.9646" y1="103.631" x2="-6.10618" y2="6.3945" gradientUnits="userSpaceOnUse">
<stop stop-color="#00CCD3"/>
<stop offset="0.13" stop-color="#04C3D3"/>
<stop offset="0.34" stop-color="#0FADD3"/>
<stop offset="0.59" stop-color="#2189D4"/>
<stop offset="0.89" stop-color="#3A57D5"/>
<stop offset="1" stop-color="#4542D6"/>
</linearGradient>
<linearGradient id="paint4_linear_11131_14" x1="59.8699" y1="98.4019" x2="2.7991" y2="1.16832" gradientUnits="userSpaceOnUse">
<stop stop-color="#00CCD3"/>
<stop offset="0.13" stop-color="#04C3D3"/>
<stop offset="0.34" stop-color="#0FADD3"/>
<stop offset="0.59" stop-color="#2189D4"/>
<stop offset="0.89" stop-color="#3A57D5"/>
<stop offset="1" stop-color="#4542D6"/>
</linearGradient>
<linearGradient id="paint5_linear_11131_14" x1="47.3635" y1="105.743" x2="-9.70732" y2="8.50712" gradientUnits="userSpaceOnUse">
<stop stop-color="#00CCD3"/>
<stop offset="0.13" stop-color="#04C3D3"/>
<stop offset="0.34" stop-color="#0FADD3"/>
<stop offset="0.59" stop-color="#2189D4"/>
<stop offset="0.89" stop-color="#3A57D5"/>
<stop offset="1" stop-color="#4542D6"/>
</linearGradient>
<linearGradient id="paint6_linear_11131_14" x1="78.4385" y1="87.5059" x2="21.3678" y2="-9.73041" gradientUnits="userSpaceOnUse">
<stop stop-color="#00CCD3"/>
<stop offset="0.13" stop-color="#04C3D3"/>
<stop offset="0.34" stop-color="#0FADD3"/>
<stop offset="0.59" stop-color="#2189D4"/>
<stop offset="0.89" stop-color="#3A57D5"/>
<stop offset="1" stop-color="#4542D6"/>
</linearGradient>
<linearGradient id="paint7_linear_11131_14" x1="99.452" y1="75.1709" x2="42.3813" y2="-22.0627" gradientUnits="userSpaceOnUse">
<stop stop-color="#00CCD3"/>
<stop offset="0.13" stop-color="#04C3D3"/>
<stop offset="0.34" stop-color="#0FADD3"/>
<stop offset="0.59" stop-color="#2189D4"/>
<stop offset="0.89" stop-color="#3A57D5"/>
<stop offset="1" stop-color="#4542D6"/>
</linearGradient>
<linearGradient id="paint8_linear_11131_14" x1="108.514" y1="69.8527" x2="51.443" y2="-27.3836" gradientUnits="userSpaceOnUse">
<stop stop-color="#00CCD3"/>
<stop offset="0.13" stop-color="#04C3D3"/>
<stop offset="0.34" stop-color="#0FADD3"/>
<stop offset="0.59" stop-color="#2189D4"/>
<stop offset="0.89" stop-color="#3A57D5"/>
<stop offset="1" stop-color="#4542D6"/>
</linearGradient>
<linearGradient id="paint9_linear_11131_14" x1="94.1815" y1="78.2655" x2="37.1107" y2="-18.9708" gradientUnits="userSpaceOnUse">
<stop stop-color="#00CCD3"/>
<stop offset="0.13" stop-color="#04C3D3"/>
<stop offset="0.34" stop-color="#0FADD3"/>
<stop offset="0.59" stop-color="#2189D4"/>
<stop offset="0.89" stop-color="#3A57D5"/>
<stop offset="1" stop-color="#4542D6"/>
</linearGradient>
<linearGradient id="paint10_linear_11131_14" x1="66.67" y1="94.4119" x2="9.59921" y2="-2.82175" gradientUnits="userSpaceOnUse">
<stop stop-color="#00CCD3"/>
<stop offset="0.13" stop-color="#04C3D3"/>
<stop offset="0.34" stop-color="#0FADD3"/>
<stop offset="0.59" stop-color="#2189D4"/>
<stop offset="0.89" stop-color="#3A57D5"/>
<stop offset="1" stop-color="#4542D6"/>
</linearGradient>
<linearGradient id="paint11_linear_11131_14" x1="43.7319" y1="107.875" x2="-13.3389" y2="10.6387" gradientUnits="userSpaceOnUse">
<stop stop-color="#00CCD3"/>
<stop offset="0.13" stop-color="#04C3D3"/>
<stop offset="0.34" stop-color="#0FADD3"/>
<stop offset="0.59" stop-color="#2189D4"/>
<stop offset="0.89" stop-color="#3A57D5"/>
<stop offset="1" stop-color="#4542D6"/>
</linearGradient>
<linearGradient id="paint12_linear_11131_14" x1="35.3602" y1="112.79" x2="-21.7106" y2="15.5538" gradientUnits="userSpaceOnUse">
<stop stop-color="#00CCD3"/>
<stop offset="0.13" stop-color="#04C3D3"/>
<stop offset="0.34" stop-color="#0FADD3"/>
<stop offset="0.59" stop-color="#2189D4"/>
<stop offset="0.89" stop-color="#3A57D5"/>
<stop offset="1" stop-color="#4542D6"/>
</linearGradient>
<clipPath id="clip0_11131_14">
<rect width="407" height="90" fill="white"/>
</clipPath>
</defs>
</svg>
