<svg width="369" height="468" viewBox="0 0 369 468" fill="none" xmlns="http://www.w3.org/2000/svg">
<g clip-path="url(#clip0_11566_2)">
<path d="M241.388 128.054C220.455 128.054 209.1 125.496 205.135 120.036C201.636 115.218 203.982 108.861 206.698 101.5C208.65 96.2099 210.862 90.2138 210.862 84.2793C210.862 55.415 225.498 40.7793 254.362 40.7793C268.724 40.7793 284.144 48.4082 295.611 61.187C306.036 72.8042 311.229 86.708 309.86 99.333C308.736 109.687 303.917 116.496 294.693 120.763L294.153 121.012L294 120.438C293.203 117.466 291.855 114.671 290.026 112.197C289.848 116.08 288.869 119.884 287.151 123.371L287.052 123.569L286.84 123.63C276.4 126.604 264.009 127.41 254.382 127.779C249.696 127.961 245.364 128.053 241.388 128.054Z" fill="#3D455E"/>
<path d="M247.095 168.271C246.292 165.912 244.939 163.779 243.147 162.048C241.355 160.318 239.177 159.039 236.792 158.319C234.407 157.599 231.885 157.458 229.434 157.908C226.984 158.358 224.676 159.385 222.703 160.906L153.846 202.073L132.3 149.5C134.12 146.83 135.048 143.652 134.95 140.422C134.852 137.191 133.734 134.075 131.756 131.52C129.778 128.965 127.041 127.101 123.939 126.198C120.836 125.294 117.527 125.396 114.486 126.489C111.445 127.582 108.828 129.61 107.011 132.282C105.194 134.955 104.269 138.134 104.371 141.364C104.472 144.594 105.594 147.709 107.575 150.262C109.556 152.815 112.295 154.675 115.398 155.575C116.726 170.736 124.107 238.496 149.782 236.033C171.363 233.963 224.957 198.27 241.604 185.894C244.267 183.916 246.233 181.144 247.22 177.977C248.207 174.81 248.163 171.411 247.095 168.271Z" fill="#FFB6B6"/>
<path d="M298.983 467.279H239.053L229.003 417.589L225.743 467.279H170.073C170.095 428.257 172.127 389.262 176.163 350.449L176.853 348.099L177.943 344.339L178.633 341.979L190.153 302.419L191.063 299.279H260.433C264.425 303.029 268.107 307.096 271.443 311.439C272.573 312.879 273.753 314.439 274.963 316.119C275.803 317.309 276.673 318.559 277.543 319.869C285.273 331.377 291.05 344.081 294.643 357.469V357.479C295.253 359.769 295.793 362.113 296.263 364.509V364.519C296.683 366.649 297.053 368.809 297.343 371.019C297.563 372.629 297.753 374.259 297.893 375.909C298.727 385.05 298.435 394.259 297.023 403.329L298.983 467.279Z" fill="#3D455E"/>
<path d="M231.264 136.09L264.28 134.389L279.616 158.62C279.616 158.62 308.469 163.444 306.469 197.444C304.469 231.444 271.363 261.279 271.363 261.279L272.778 278.985L270.32 286.008L270.636 289.951L273.988 294.127L274.334 298.446L271.363 305.279L275.403 311.822L190.469 303.593L187.363 292.279L191.894 286.204L189.363 278.279L193.168 270.657L195.151 246.446C195.151 246.446 173.447 213.839 198.363 189.279L208.363 172.279L219.552 158.628L231.264 136.09Z" fill="#07B0F3"/>
<path d="M247.678 129.248C266.999 129.248 282.662 113.585 282.662 94.2635C282.662 74.9422 266.999 59.2793 247.678 59.2793C228.356 59.2793 212.693 74.9422 212.693 94.2635C212.693 113.585 228.356 129.248 247.678 129.248Z" fill="#FFB6B6"/>
<path d="M242.994 92.143C239.979 92.143 236.966 92.0581 233.955 91.8881L233.417 91.8579L233.488 91.3237C233.931 87.9844 233.682 84.5895 232.754 81.351C231.179 85.0385 228.836 88.3477 225.881 91.058L225.714 91.2109L225.49 91.1865C217.311 90.2919 209.207 88.8138 201.239 86.7636L200.934 86.6855L200.873 86.3769C200.278 83.4546 199.97 80.4812 199.953 77.499C199.953 68.1831 203.331 60.3422 209.464 55.4209C216.139 50.0639 225.708 48.4165 236.418 50.7793H270.663C274.428 50.7835 278.037 52.2809 280.699 54.9431C283.362 57.6052 284.859 61.2146 284.863 64.9795V86.6655L284.49 86.7631C270.945 90.3229 256.999 92.1309 242.994 92.143Z" fill="#3D455E"/>
<path d="M4.27998 53.229C2.74696 53.7897 1.49897 54.9356 0.809761 56.4153C0.120557 57.895 0.0464331 59.5876 0.603676 61.1219L37.5469 162.491C38.1076 164.024 39.2534 165.272 40.7331 165.961C42.2127 166.65 43.9054 166.724 45.4397 166.167L188.823 113.912C190.356 113.352 191.604 112.206 192.293 110.726C192.982 109.246 193.056 107.554 192.499 106.019L155.556 4.6505C154.995 3.11746 153.849 1.8694 152.37 1.18014C150.89 0.490887 149.197 0.416722 147.663 0.973907L4.27998 53.229Z" fill="#CCCCCC"/>
<path d="M135.459 127.772L47.6935 159.758C46.0422 160.357 44.2205 160.277 42.6279 159.536C41.0354 158.794 39.8021 157.451 39.1987 155.801L5.69151 63.8598C5.09175 62.2085 5.1715 60.3868 5.91329 58.7942C6.65507 57.2016 7.99827 55.9683 9.64824 55.3649L144.929 6.06263C146.58 5.46291 148.402 5.5427 149.995 6.28452C151.587 7.02635 152.821 8.36963 153.424 10.0196L169.614 54.4444C174.791 68.6985 174.102 84.4239 167.699 98.1708C161.296 111.918 149.701 122.563 135.459 127.772Z" fill="white"/>
<path d="M87.3071 89.3526L66.4511 96.9534C66.1896 97.0487 65.9118 97.0916 65.6337 97.0795C65.3556 97.0675 65.0825 97.0008 64.8302 96.8833C64.5779 96.7657 64.3511 96.5997 64.163 96.3945C63.9748 96.1894 63.8289 95.9491 63.7336 95.6876C63.6383 95.426 63.5954 95.1483 63.6074 94.8702C63.6195 94.592 63.6862 94.319 63.8037 94.0667C63.9212 93.8143 64.0873 93.5876 64.2925 93.3995C64.4977 93.2113 64.7379 93.0654 64.9994 92.9701L85.8554 85.3692C86.3836 85.1767 86.9667 85.2019 87.4763 85.4393C87.9859 85.6767 88.3804 86.1068 88.5729 86.635C88.7654 87.1632 88.7402 87.7463 88.5028 88.2559C88.2654 88.7656 87.8353 89.16 87.3071 89.3526Z" fill="#07B0F3"/>
<path d="M137.029 80.4599L69.4203 105.099C69.1587 105.195 68.8808 105.238 68.6024 105.226C68.3241 105.215 68.0508 105.148 67.7982 105.031C67.5456 104.913 67.3186 104.747 67.1302 104.542C66.9418 104.337 66.7958 104.096 66.7004 103.834C66.605 103.573 66.5622 103.295 66.5743 103.016C66.5864 102.738 66.6533 102.465 66.7711 102.212C66.8888 101.96 67.0552 101.733 67.2607 101.545C67.4662 101.357 67.7068 101.211 67.9687 101.116L135.577 76.4766C135.838 76.3813 136.116 76.3384 136.394 76.3504C136.672 76.3624 136.945 76.4291 137.198 76.5467C137.45 76.6642 137.677 76.8303 137.865 77.0355C138.053 77.2406 138.199 77.4808 138.294 77.7424C138.39 78.0039 138.433 78.2817 138.421 78.5598C138.409 78.8379 138.342 79.1109 138.224 79.3633C138.107 79.6156 137.941 79.8424 137.736 80.0305C137.53 80.2187 137.29 80.3646 137.029 80.4599Z" fill="#07B0F3"/>
<path d="M140.436 89.8103L72.8281 114.45C72.5665 114.545 72.2888 114.588 72.0106 114.576C71.7325 114.564 71.4595 114.497 71.2071 114.38C70.9548 114.262 70.7281 114.096 70.5399 113.891C70.3518 113.686 70.2059 113.446 70.1106 113.184C70.0152 112.922 69.9724 112.645 69.9844 112.367C69.9964 112.088 70.0631 111.815 70.1807 111.563C70.2982 111.311 70.4643 111.084 70.6695 110.896C70.8746 110.708 71.1148 110.562 71.3764 110.466L138.985 85.827C139.513 85.6353 140.095 85.6611 140.604 85.8986C141.113 86.1361 141.507 86.5659 141.7 87.0937C141.892 87.6215 141.867 88.2041 141.63 88.7135C141.393 89.2229 140.964 89.6173 140.436 89.8103Z" fill="#07B0F3"/>
<path d="M143.844 99.1608L76.2358 123.8C75.9742 123.896 75.6962 123.939 75.4179 123.927C75.1395 123.916 74.8662 123.849 74.6136 123.732C74.361 123.614 74.134 123.448 73.9456 123.243C73.7573 123.037 73.6112 122.797 73.5158 122.535C73.4204 122.274 73.3776 121.996 73.3897 121.717C73.4018 121.439 73.4687 121.166 73.5865 120.913C73.7043 120.661 73.8707 120.434 74.0762 120.246C74.2817 120.058 74.5222 119.912 74.7841 119.817L142.392 95.1775C142.654 95.0822 142.932 95.0393 143.21 95.0513C143.488 95.0633 143.761 95.13 144.013 95.2476C144.266 95.3651 144.492 95.5312 144.681 95.7364C144.869 95.9415 145.015 96.1818 145.11 96.4433C145.205 96.7049 145.248 96.9826 145.236 97.2607C145.224 97.5388 145.157 97.8119 145.04 98.0642C144.922 98.3166 144.756 98.5433 144.551 98.7314C144.346 98.9196 144.106 99.0655 143.844 99.1608Z" fill="#07B0F3"/>
<path d="M147.252 108.511L79.6435 133.151C79.1153 133.343 78.5322 133.318 78.0226 133.081C77.5129 132.843 77.1185 132.413 76.926 131.885C76.7335 131.357 76.7587 130.774 76.9961 130.264C77.2335 129.754 77.6636 129.36 78.1918 129.167L145.8 104.528C146.062 104.433 146.339 104.39 146.618 104.402C146.896 104.414 147.169 104.48 147.421 104.598C147.673 104.716 147.9 104.882 148.088 105.087C148.276 105.292 148.422 105.532 148.518 105.794C148.613 106.055 148.656 106.333 148.644 106.611C148.632 106.889 148.565 107.162 148.448 107.415C148.33 107.667 148.164 107.894 147.959 108.082C147.754 108.27 147.513 108.416 147.252 108.511Z" fill="#07B0F3"/>
<path d="M346.772 106.48L309.756 195.059C308.177 198.808 305.187 201.785 301.432 203.348C297.677 204.911 293.458 204.936 289.686 203.416C287.734 202.629 285.963 201.454 284.48 199.961C282.998 198.467 281.835 196.688 281.062 194.731C280.29 192.774 279.924 190.68 279.987 188.576C280.051 186.473 280.542 184.405 281.43 182.498L322.702 91.6634L345.453 35.4121C343.487 33.4513 342.173 30.9327 341.688 28.1987C341.203 25.4647 341.572 22.6477 342.744 20.1304C343.916 17.6132 345.834 15.5177 348.238 14.1288C350.643 12.7398 353.416 12.1247 356.182 12.3669C358.948 12.6092 361.573 13.6971 363.699 15.4829C365.825 17.2686 367.35 19.6656 368.067 22.3483C368.783 25.0309 368.657 27.8691 367.704 30.4773C366.751 33.0854 365.019 35.337 362.742 36.9262L346.772 106.48Z" fill="#FFB6B6"/>
<g clip-path="url(#clip1_11566_2)">
<path fill-rule="evenodd" clip-rule="evenodd" d="M92.0064 41.5669C92.5466 41.8193 92.9646 42.2757 93.1685 42.836C93.3724 43.3963 93.3456 44.0146 93.094 44.5552L82.162 67.999C82.0357 68.2694 81.8569 68.512 81.6359 68.7127C81.415 68.9134 81.1563 69.0681 80.875 69.1678C80.5936 69.2675 80.2953 69.3103 79.9973 69.2936C79.6993 69.2768 79.4075 69.201 79.1391 69.0705L69.8162 64.5335C69.2829 64.2704 68.8755 63.807 68.6829 63.2444C68.4903 62.6819 68.5282 62.0659 68.7884 61.5313C69.0485 60.9966 69.5097 60.5866 70.0712 60.391C70.6327 60.1953 71.2488 60.2299 71.7849 60.4871L79.0515 64.023L89.0181 42.6546C89.2705 42.1143 89.7269 41.6963 90.2872 41.4924C90.8475 41.2885 91.4658 41.3153 92.0064 41.5669Z" fill="#16A34A"/>
</g>
</g>
<defs>
<clipPath id="clip0_11566_2">
<rect width="369" height="468" fill="white"/>
</clipPath>
<clipPath id="clip1_11566_2">
<rect width="36" height="36" fill="white" transform="translate(58.9287 45.2419) rotate(-20)"/>
</clipPath>
</defs>
</svg>
