<svg width="22" height="20" viewBox="0 0 22 20" fill="none" xmlns="http://www.w3.org/2000/svg">
<path d="M0 10.6652V12.7295C0 13.2995 0.485046 13.7616 1.08333 13.7616H1.44443V9.63304H1.08333C0.485046 9.63304 0 10.0952 0 10.6652Z" fill="currentColor"/>
<path d="M20.5834 9.63304H20.2223V13.7616H20.5834C21.1817 13.7616 21.6667 13.2995 21.6667 12.7295V10.6652C21.6667 10.0952 21.1817 9.63304 20.5834 9.63304Z" fill="currentColor"/>
<path d="M12.6389 1.71993C12.6367 2.5367 12.0339 3.24021 11.1944 3.40575V5.1604H10.4722V3.40575C9.54126 3.22472 8.91691 2.38724 9.04399 1.49016C9.17107 0.593082 10.0062 -0.0566844 10.9542 0.00391372C11.9022 0.0645118 12.6387 0.814711 12.6389 1.71993Z" fill="currentColor"/>
<path d="M15.1667 11.6973C15.765 11.6973 16.25 11.2352 16.25 10.6652C16.25 10.0951 15.765 9.63304 15.1667 9.63304C14.5684 9.63304 14.0834 10.0951 14.0834 10.6652C14.0834 11.2352 14.5684 11.6973 15.1667 11.6973Z" fill="currentColor"/>
<path d="M6.50002 11.6973C7.09833 11.6973 7.58335 11.2352 7.58335 10.6652C7.58335 10.0951 7.09833 9.63304 6.50002 9.63304C5.90171 9.63304 5.41669 10.0951 5.41669 10.6652C5.41669 11.2352 5.90171 11.6973 6.50002 11.6973Z" fill="currentColor"/>
<path d="M17.3333 5.84855H4.33329C3.13667 5.84855 2.16663 6.77276 2.16663 7.91283V15.4819C2.16663 16.6191 3.13206 17.5422 4.32572 17.5462C4.42258 17.5449 4.51594 17.5806 4.58513 17.6452C4.65431 17.7098 4.69367 17.7979 4.69443 17.8902V19.6556C4.69426 19.7825 4.76756 19.8993 4.88503 19.9592C5.00251 20.0192 5.14512 20.0126 5.25595 19.9421L8.8472 17.6618C8.96539 17.5867 9.10419 17.5465 9.24621 17.5462H17.3333C18.5299 17.5462 19.5 16.622 19.5 15.4819V7.91279C19.5 6.77276 18.5299 5.84855 17.3333 5.84855ZM6.49996 12.3854C5.50279 12.3854 4.69439 11.6152 4.69439 10.6652C4.69439 9.71513 5.50279 8.94493 6.49996 8.94493C7.49713 8.94493 8.30553 9.71513 8.30553 10.6652C8.3043 11.6148 7.49663 12.3843 6.49996 12.3854ZM12.9451 13.5999C12.9223 13.6347 12.3698 14.4497 10.8333 14.4497C9.29678 14.4497 8.74428 13.6347 8.72151 13.5999C8.61923 13.4398 8.67035 13.2311 8.8364 13.1306C9.00246 13.0302 9.22243 13.0748 9.33106 13.2311C9.35272 13.2607 9.73045 13.7616 10.8333 13.7616C11.9459 13.7616 12.3207 13.252 12.3359 13.2304C12.4463 13.0743 12.6672 13.0304 12.8338 13.1316C12.9992 13.2324 13.0488 13.4411 12.9451 13.5999ZM15.1666 12.3854C14.1695 12.3854 13.3611 11.6152 13.3611 10.6652C13.3611 9.71513 14.1695 8.94493 15.1666 8.94493C16.1638 8.94493 16.9722 9.71513 16.9722 10.6652C16.971 11.6148 16.1633 12.3843 15.1666 12.3854Z" fill="currentColor"/>
</svg>
