<svg width="21" height="20" viewBox="0 0 21 20" fill="none" xmlns="http://www.w3.org/2000/svg">
<path id="Vector" d="M15.6511 2.81349C15.3978 2.62907 15.1036 2.5088 14.7936 2.46298C14.4836 2.41716 14.1671 2.44716 13.8713 2.55041L6.359 5.17068H3.83896C1.99966 5.17068 0.503296 6.90033 0.503296 9.02615C0.503296 11.152 1.99966 12.8816 3.83896 12.8816H4.05568V16.934C4.05568 17.0998 4.12153 17.2588 4.23874 17.376C4.35595 17.4932 4.51492 17.559 4.68068 17.559H4.68494L5.55068 17.5531C5.63275 17.5529 5.71397 17.5364 5.7897 17.5048C5.86542 17.4731 5.93417 17.4268 5.99201 17.3686C6.04985 17.3104 6.09566 17.2413 6.12681 17.1654C6.15797 17.0895 6.17386 17.0081 6.17359 16.9261C6.17331 16.844 6.15688 16.7628 6.12521 16.687C6.09355 16.6113 6.04728 16.5426 5.98905 16.4847C5.93082 16.4269 5.86177 16.3811 5.78584 16.3499C5.7099 16.3188 5.62858 16.3029 5.5465 16.3031H5.5422L5.30568 16.3047V12.882H6.359L13.8713 15.5023C14.0761 15.5741 14.2916 15.6109 14.5087 15.6111C14.919 15.6093 15.3184 15.4793 15.6511 15.2392C16.2847 14.7892 16.6628 14.0124 16.6628 13.1611V4.89154C16.6629 4.04037 16.2847 3.26353 15.6511 2.81349ZM1.7533 9.02635C1.7533 7.58959 2.68892 6.42088 3.83896 6.42088H5.83986V11.632H3.83896C2.68892 11.632 1.7533 10.4631 1.7533 9.02635ZM15.4129 13.1611C15.4129 13.6015 15.2269 14.0074 14.9273 14.2201C14.8366 14.289 14.7304 14.3343 14.6179 14.3521C14.5055 14.3699 14.3904 14.3596 14.283 14.322L7.08986 11.8131V6.23963L14.2829 3.73064C14.3904 3.6931 14.5056 3.68276 14.618 3.70055C14.7305 3.71834 14.8368 3.76371 14.9275 3.8326C15.227 4.04537 15.4131 4.45115 15.4131 4.89158L15.4129 13.1611ZM18.0653 4.28068C18.0318 4.20577 18.0133 4.12498 18.011 4.04293C18.0087 3.96089 18.0225 3.87919 18.0518 3.80251C18.0811 3.72582 18.1252 3.65565 18.1815 3.596C18.2379 3.53635 18.3055 3.48839 18.3804 3.45486L19.5086 2.9499C19.5836 2.916 19.6645 2.89723 19.7468 2.89467C19.829 2.89212 19.911 2.90583 19.9879 2.93502C20.0648 2.96421 20.1352 3.0083 20.1951 3.06477C20.2549 3.12123 20.303 3.18896 20.3367 3.26406C20.3703 3.33916 20.3887 3.42016 20.391 3.50241C20.3932 3.58466 20.3792 3.66655 20.3497 3.74336C20.3202 3.82018 20.2758 3.89041 20.2191 3.95004C20.1624 4.00967 20.0945 4.05752 20.0193 4.09084L18.8911 4.5958C18.8162 4.62939 18.7354 4.64789 18.6533 4.65023C18.5713 4.65257 18.4895 4.63871 18.4128 4.60944C18.3362 4.58017 18.266 4.53607 18.2063 4.47966C18.1467 4.42325 18.0988 4.35563 18.0653 4.28068ZM20.3344 14.7877C20.301 14.8626 20.253 14.9303 20.1934 14.9867C20.1338 15.0431 20.0636 15.0872 19.9869 15.1165C19.9102 15.1457 19.8285 15.1596 19.7464 15.1573C19.6643 15.1549 19.5836 15.1364 19.5086 15.1028L18.3804 14.5978C18.3045 14.5649 18.236 14.5173 18.1787 14.4577C18.1213 14.3981 18.0764 14.3277 18.0465 14.2506C18.0166 14.1736 18.0022 14.0913 18.0043 14.0086C18.0064 13.926 18.0249 13.8446 18.0587 13.7691C18.0925 13.6936 18.1409 13.6256 18.2011 13.569C18.2614 13.5124 18.3323 13.4682 18.4097 13.4392C18.4872 13.4102 18.5696 13.3968 18.6522 13.3999C18.7348 13.4029 18.816 13.4223 18.8911 13.457L20.0193 13.962C20.1706 14.0297 20.2888 14.1547 20.3479 14.3096C20.407 14.4644 20.4021 14.6364 20.3345 14.7877H20.3344ZM20.4967 9.02635C20.4967 9.19211 20.4308 9.35108 20.3136 9.46829C20.1964 9.5855 20.0375 9.65135 19.8717 9.65135H18.6358C18.47 9.65135 18.311 9.5855 18.1938 9.46829C18.0766 9.35108 18.0108 9.19211 18.0108 9.02635C18.0108 8.86059 18.0766 8.70161 18.1938 8.5844C18.311 8.46719 18.47 8.40135 18.6358 8.40135H19.8717C20.0375 8.40135 20.1965 8.46719 20.3137 8.5844C20.4309 8.70161 20.4967 8.86059 20.4967 9.02635ZM9.66017 8.46564V9.70162C9.66017 9.86738 9.59432 10.0264 9.47711 10.1436C9.3599 10.2608 9.20093 10.3266 9.03517 10.3266C8.86941 10.3266 8.71044 10.2608 8.59323 10.1436C8.47602 10.0264 8.41017 9.86738 8.41017 9.70162V8.46564C8.41017 8.29988 8.47602 8.14091 8.59323 8.0237C8.71044 7.90649 8.86941 7.84064 9.03517 7.84064C9.20093 7.84064 9.3599 7.90649 9.47711 8.0237C9.59432 8.14091 9.66017 8.29988 9.66017 8.46564Z" fill="currentColor"/>
</svg>
