<svg width="22" height="22" viewBox="0 0 22 22" fill="none" xmlns="http://www.w3.org/2000/svg">
<path d="M16.445 9.79C16.5069 9.22625 16.5138 8.65563 16.4519 8.085C16.0669 4.61313 13.2688 1.815 9.7969 1.43C7.64502 1.18938 5.49315 1.87688 3.89815 3.31375C2.29627 4.74375 1.3819 6.79938 1.3819 8.95125V15.8263C1.3819 16.1013 1.55377 16.3419 1.80815 16.4519C2.06252 16.5619 2.36502 16.4931 2.5644 16.3006C3.41002 15.4688 4.72315 15.2763 5.7544 15.8331C6.99877 16.5069 8.8619 16.5138 8.9444 16.5138C9.23315 16.5138 9.51502 16.4931 9.7969 16.4656C10.395 18.8788 12.6019 20.6388 15.1319 20.6388C15.2763 20.6388 16.5619 20.625 17.4625 20.1369C18.1019 19.7931 18.92 19.91 19.4563 20.4394C19.5869 20.57 19.7656 20.6388 19.9444 20.6388C20.0338 20.6388 20.1231 20.625 20.2056 20.5838C20.46 20.4806 20.6319 20.2263 20.6319 19.9513V15.1388C20.6319 12.6019 18.8719 10.4019 16.4519 9.80375L16.445 9.79ZM6.40065 14.6094C5.8094 14.2863 5.1494 14.135 4.49627 14.135C3.89815 14.135 3.30002 14.2656 2.75002 14.52V8.94438C2.75002 7.18438 3.4994 5.50688 4.81252 4.33125C6.1394 3.14188 7.85815 2.59188 9.64565 2.79125C12.485 3.1075 14.7744 5.39 15.0838 8.22938C15.2831 10.0169 14.7331 11.7356 13.5438 13.0625C12.3681 14.3688 10.6906 15.125 8.93065 15.125C8.49065 15.125 7.17065 15.0288 6.39377 14.6094H6.40065ZM19.25 18.7206C18.4525 18.4456 17.5588 18.5006 16.8025 18.9131C16.2938 19.1881 15.4206 19.25 15.125 19.25C13.2413 19.25 11.6188 17.9506 11.1513 16.1631C12.4575 15.7644 13.6469 15.0219 14.575 13.9838C15.3106 13.1588 15.8469 12.1894 16.1631 11.1513C17.9506 11.6188 19.25 13.2413 19.25 15.125V18.7206Z" fill="currentColor"/>
<path d="M8.9375 9.625C9.3172 9.625 9.625 9.3172 9.625 8.9375C9.625 8.5578 9.3172 8.25 8.9375 8.25C8.5578 8.25 8.25 8.5578 8.25 8.9375C8.25 9.3172 8.5578 9.625 8.9375 9.625Z" fill="currentColor"/>
<path d="M11.6875 9.625C12.0672 9.625 12.375 9.3172 12.375 8.9375C12.375 8.5578 12.0672 8.25 11.6875 8.25C11.3078 8.25 11 8.5578 11 8.9375C11 9.3172 11.3078 9.625 11.6875 9.625Z" fill="currentColor"/>
<path d="M6.1875 9.625C6.5672 9.625 6.875 9.3172 6.875 8.9375C6.875 8.5578 6.5672 8.25 6.1875 8.25C5.8078 8.25 5.5 8.5578 5.5 8.9375C5.5 9.3172 5.8078 9.625 6.1875 9.625Z" fill="currentColor"/>
</svg>
