<svg width="20" height="20" viewBox="0 0 20 20" fill="none" xmlns="http://www.w3.org/2000/svg">
<path d="M19.928 15.6971L18.7664 12.3165C19.3263 11.1719 19.6222 9.89891 19.6242 8.61808C19.6277 6.39101 18.766 4.28526 17.198 2.68877C15.6296 1.09197 13.5397 0.193105 11.3131 0.157831C9.00432 0.121347 6.83416 0.999552 5.20263 2.63104C3.62943 4.20421 2.75685 6.27816 2.72923 8.49441C1.17868 9.66184 0.263482 11.482 0.26649 13.4261C0.267935 14.3358 0.472701 15.2402 0.86071 16.0579L0.060591 18.3864C-0.0769483 18.7867 0.0235207 19.2213 0.322818 19.5206C0.533444 19.7312 0.811139 19.8434 1.09673 19.8434C1.21688 19.8434 1.33845 19.8235 1.457 19.7828L3.78548 18.9827C4.60326 19.3707 5.50759 19.5754 6.41736 19.5769C6.42064 19.5769 6.42377 19.5769 6.42705 19.5769C8.4001 19.5768 10.2341 18.638 11.3973 17.0495C12.6077 17.0176 13.8053 16.7246 14.888 16.1949L18.2686 17.3566C18.4095 17.405 18.5539 17.4286 18.6967 17.4286C19.0361 17.4286 19.3661 17.2953 19.6165 17.0449C19.9721 16.6892 20.0915 16.1728 19.928 15.6971ZM6.42697 18.3864C6.42443 18.3864 6.42174 18.3864 6.4192 18.3864C5.61396 18.3852 4.81431 18.1867 4.10685 17.8124C3.96138 17.7355 3.7906 17.7222 3.63505 17.7756L1.24743 18.596L2.06786 16.2085C2.1213 16.0529 2.10802 15.8821 2.03106 15.7367C1.65677 15.0292 1.45825 14.2295 1.457 13.4243C1.45501 12.129 1.95888 10.9013 2.84001 9.98199C3.12782 11.7365 3.96404 13.3533 5.26021 14.6265C6.54681 15.8902 8.16408 16.6948 9.90909 16.9578C8.98768 17.866 7.74565 18.3864 6.42697 18.3864ZM18.7746 16.2031C18.7407 16.237 18.7005 16.2462 18.6554 16.2306L15.0363 14.987C14.9735 14.9654 14.9081 14.9547 14.8429 14.9547C14.7469 14.9547 14.6512 14.978 14.5646 15.0238C13.5312 15.5705 12.3636 15.8604 11.1877 15.8622C11.1839 15.8622 11.1803 15.8622 11.1765 15.8622C7.2365 15.8622 3.98208 12.6616 3.91966 8.72261C3.88822 6.73882 4.64283 4.8744 6.04443 3.4728C7.44604 2.07119 9.31077 1.31686 11.2943 1.34811C15.2371 1.41065 18.4398 4.67108 18.4338 8.61621C18.4319 9.79207 18.142 10.9598 17.5954 11.993C17.5185 12.1384 17.5052 12.3092 17.5586 12.4648L18.8022 16.0839C18.8177 16.1292 18.8084 16.1693 18.7746 16.2031Z" fill="currentColor"/>
<path d="M14.7226 5.44971H7.63039C7.30164 5.44971 7.03516 5.71623 7.03516 6.04494C7.03516 6.37369 7.30168 6.64018 7.63039 6.64018H14.7226C15.0513 6.64018 15.3178 6.37365 15.3178 6.04494C15.3178 5.71623 15.0513 5.44971 14.7226 5.44971Z" fill="currentColor"/>
<path d="M14.7226 7.89783H7.63039C7.30164 7.89783 7.03516 8.16435 7.03516 8.49306C7.03516 8.82177 7.30168 9.0883 7.63039 9.0883H14.7226C15.0513 9.0883 15.3178 8.82177 15.3178 8.49306C15.3178 8.16435 15.0513 7.89783 14.7226 7.89783Z" fill="currentColor"/>
<path d="M11.9926 10.3458H7.63039C7.30164 10.3458 7.03516 10.6123 7.03516 10.9411C7.03516 11.2698 7.30168 11.5363 7.63039 11.5363H11.9926C12.3213 11.5363 12.5878 11.2698 12.5878 10.9411C12.5878 10.6123 12.3214 10.3458 11.9926 10.3458Z" fill="currentColor"/>
</svg>
