<svg width="18" height="18" viewBox="0 0 18 18" fill="none" xmlns="http://www.w3.org/2000/svg">
<path d="M12.9009 8.85068C14.7032 8.85068 16.1642 7.38964 16.1642 5.58736C16.1642 3.78509 14.7032 2.32405 12.9009 2.32405C11.0986 2.32405 9.63757 3.78509 9.63757 5.58736C9.63757 7.38964 11.0986 8.85068 12.9009 8.85068Z" fill="currentColor"/>
<path fill-rule="evenodd" clip-rule="evenodd" d="M11.1029 9.0737H11.3349C11.6977 9.54001 12.2642 9.84005 12.9008 9.84005C13.5375 9.84005 14.1039 9.54001 14.4668 9.0737H14.6988C16.5145 9.0737 18 10.5592 18 12.3749V15.6761H7.8017V12.3749C7.8017 10.5592 9.28723 9.0737 11.1029 9.0737Z" fill="currentColor"/>
<path fill-rule="evenodd" clip-rule="evenodd" d="M5.09913 2.32393C6.90145 2.32393 8.36257 3.78501 8.36257 5.58737C8.36257 7.38968 6.90145 8.85076 5.09913 8.85076C3.29677 8.85076 1.83569 7.38968 1.83569 5.58737C1.83569 3.78501 3.29677 2.32393 5.09913 2.32393Z" fill="currentColor"/>
<path fill-rule="evenodd" clip-rule="evenodd" d="M7.48029 15.6761H0V12.3749C0 10.5592 1.48549 9.0737 3.30114 9.0737H3.53317C3.89604 9.54001 4.4625 9.84005 5.09914 9.84005C5.73573 9.84005 6.30223 9.54001 6.66506 9.0737H6.8971C7.57658 9.0737 8.20977 9.28181 8.73624 9.63742C7.96806 10.3029 7.48029 11.2845 7.48029 12.3749V15.6761Z" fill="currentColor"/>
</svg>
