<svg width="143" height="143" viewBox="0 0 143 143" fill="none" xmlns="http://www.w3.org/2000/svg">
<path d="M0 42C7.56938 41.9382 15.1388 41.8763 22.9375 41.8125C26.4952 41.7716 26.4952 41.7716 30.1248 41.7298C32.0298 41.721 33.9348 41.7134 35.8398 41.7071C37.293 41.684 37.293 41.684 38.7755 41.6606C47.8562 41.6571 55.4571 43.4062 62.1367 49.8047C68.4892 57.2892 70.9015 64.8272 70.4688 74.586C69.5899 80.9872 67.5805 86.6292 64 92C72.2755 92.0696 80.5508 92.1229 88.8264 92.1555C92.6692 92.1711 96.5118 92.1924 100.354 92.2264C104.063 92.259 107.772 92.2769 111.481 92.2847C112.895 92.2902 114.31 92.301 115.725 92.3172C117.707 92.339 119.689 92.3403 121.671 92.3406C122.799 92.3473 123.927 92.3539 125.089 92.3608C128.321 91.9602 129.693 91.2596 132 89C132.554 87.0595 132.554 87.0595 132.375 85C132.362 84.3194 132.349 83.6388 132.336 82.9375C132.079 80.6806 132.079 80.6806 130 78C127.289 77.0963 125.701 76.8717 122.915 76.8582C122.097 76.8512 121.279 76.8441 120.436 76.8369C119.555 76.8327 118.674 76.8285 117.766 76.8243C115.893 76.8011 114.021 76.7769 112.148 76.752C109.201 76.7169 106.255 76.6876 103.308 76.6741C100.46 76.6586 97.6131 76.6183 94.7656 76.5743C93.4559 76.5771 93.4559 76.5771 92.1197 76.58C86.2676 76.4639 82.8231 75.3572 78 72C74.842 68.2347 73.1954 63.6606 72.625 58.8125C73.1063 53.9193 74.6269 50.5839 78 47C83.974 42.1548 88.8548 41.3002 96.4062 41.5118C97.8542 41.5224 97.8542 41.5224 99.3314 41.5332C102.388 41.561 105.444 41.6237 108.5 41.6875C110.583 41.7126 112.667 41.7354 114.75 41.7559C119.834 41.8108 124.917 41.8969 130 42C130 44.97 130 47.94 130 51C128.718 51.0094 127.437 51.0187 126.116 51.0284C121.36 51.0682 116.604 51.134 111.848 51.2076C109.79 51.2358 107.732 51.257 105.673 51.271C102.714 51.2924 99.7559 51.3391 96.7969 51.3907C95.417 51.3925 95.417 51.3925 94.0092 51.3944C88.8693 51.4792 88.8693 51.4792 84.4229 53.8545C82.4367 56.8494 82.3525 58.4749 83 62C85.0128 64.7684 86.603 66.7065 90.059 67.4326C92.5901 67.5757 95.0789 67.561 97.6133 67.4961C99.5202 67.498 101.427 67.4999 103.334 67.502C106.323 67.4748 109.311 67.4376 112.3 67.3948C115.196 67.362 118.091 67.3654 120.988 67.3711C122.314 67.334 122.314 67.334 123.666 67.296C130.329 67.3231 134.253 69.3376 139 74C142.375 78.7463 142.742 83.3511 142 89C140.282 93.701 137.831 96.7929 134 100C128.362 102.582 122.743 102.268 116.67 102.227C114.972 102.228 114.972 102.228 113.239 102.228C109.506 102.227 105.772 102.211 102.039 102.195C99.4469 102.192 96.8547 102.189 94.2625 102.187C88.1428 102.18 82.0232 102.164 75.9035 102.144C68.9337 102.122 61.964 102.111 54.9942 102.101C40.6627 102.08 26.3314 102.044 12 102C12 99.03 12 96.06 12 93C13.6341 92.986 13.6341 92.986 15.3013 92.9717C19.3608 92.9317 23.4195 92.8659 27.4785 92.7925C29.232 92.7644 30.9856 92.7431 32.7393 92.729C35.2669 92.7075 37.7931 92.6608 40.3203 92.6094C41.4879 92.6076 41.4879 92.6076 42.679 92.6057C47.8802 92.4672 50.8618 91.4111 55 88C59.5193 82.2254 61.5093 76.6633 61.3125 69.3711C60.5632 63.6855 58.2902 58.7774 53.9375 55C49.1097 51.713 44.83 51.7963 39.1758 51.6836C38.4121 51.665 37.6485 51.6463 36.8617 51.6271C34.0121 51.5589 31.1623 51.4987 28.3125 51.4375C21.9394 51.2932 15.5662 51.1488 9 51C9 67.83 9 84.66 9 102C6.03 102 3.06 102 0 102C0 82.2 0 62.4 0 42Z" fill="currentColor"/>
<path d="M12 93C14.97 93 17.94 93 21 93C21 95.97 21 98.94 21 102C18.03 102 15.06 102 12 102C12 99.03 12 96.06 12 93Z" fill="#1A70A2"/>
<path d="M130 42C132.64 42 135.28 42 138 42C138 44.97 138 47.94 138 51C135.36 51 132.72 51 130 51C130 48.03 130 45.06 130 42Z" fill="#1176B0"/>
</svg>
