<svg width="143" height="143" viewBox="0 0 143 143" fill="none" xmlns="http://www.w3.org/2000/svg">
<g clip-path="url(#clip0_11278_15)">
<path d="M137.49 55.0382C140.528 55.0382 143 52.5666 143 49.5277V30.3579C143 13.619 129.384 0 112.645 0H30.3579C13.619 0 0 13.619 0 30.3579V71.5012C0 74.5401 2.47152 77.0089 5.5103 77.0089H43.3989L57.0857 109.571C58.0145 111.783 60.2133 113.131 62.5605 112.931C64.9186 112.764 66.9041 111.111 67.4981 108.82L82.068 52.7207L90.8603 73.6351C91.7219 75.6826 93.7155 77.0089 95.941 77.0089H131.982V112.645C131.982 123.306 123.309 131.982 112.645 131.982H30.3579C19.6966 131.982 11.0206 123.309 11.0206 112.645V93.5534C11.0206 90.5145 8.54905 88.0429 5.5103 88.0429C2.47152 88.0429 0 90.5145 0 93.5534V112.645C0 129.384 13.619 143 30.3579 143H112.645C129.384 143 143.003 129.381 143.003 112.645V71.5012C143.003 68.4628 140.531 65.9911 137.492 65.9911H99.601L85.9146 33.4291C85.0043 31.2628 82.8137 29.9122 80.4365 30.0662C78.0783 30.2363 76.0962 31.8894 75.5017 34.1772L60.9318 90.2741L52.1424 69.3649C51.2808 67.3145 49.2871 65.9883 47.0616 65.9883H11.0206V30.3579C11.0206 19.6966 19.6939 11.0232 30.3579 11.0232H112.645C123.306 11.0232 131.982 19.6966 131.982 30.3579V49.5277C131.979 52.5666 134.451 55.0382 137.49 55.0382Z" fill="url(#paint0_linear_11278_15)"/>
</g>
<defs>
<linearGradient id="paint0_linear_11278_15" x1="8.83681" y1="134.635" x2="135.752" y2="6.76547" gradientUnits="userSpaceOnUse">
<stop stop-color="#00E969"/>
<stop offset="0.1379" stop-color="#00D58C"/>
<stop offset="0.3136" stop-color="#00C1B1"/>
<stop offset="0.4895" stop-color="#00B0CE"/>
<stop offset="0.6635" stop-color="#00A4E2"/>
<stop offset="0.8348" stop-color="#009DEF"/>
<stop offset="1" stop-color="#009BF3"/>
</linearGradient>
<clipPath id="clip0_11278_15">
<rect width="143" height="143" fill="white"/>
</clipPath>
</defs>
</svg>
