<svg width="143" height="143" viewBox="0 0 143 143" fill="none" xmlns="http://www.w3.org/2000/svg">
<path d="M32.7406 68.5974L28.1515 79.3884H46.3269C46.1129 80.962 45.2395 82.747 43.4898 84.7059C40.4263 88.2785 35.4392 90.4061 30.4524 90.4061C20.2144 90.4061 12.1639 82.153 12.1639 71.6061C12.1639 61.0593 19.9526 52.7205 30.1881 52.7205C33.35 52.7205 36.0661 53.36 38.581 54.7473L42.8479 44.699C38.9081 42.9341 34.5331 42 29.9263 42C12.7756 42 0 54.6768 0 71.6035C0 88.5303 12.8637 100.953 30.0119 100.953C38.2361 100.953 45.675 97.8912 51.5378 92.1911C57.4007 86.4054 60.0263 79.8567 60.0263 71.0924V68.5948H32.7406V68.5974Z" fill="#00A363"/>
<path d="M107.581 100.953H120.284L143 47.403H104.492V57.9649H125.804L107.581 100.953Z" fill="#8EE000"/>
<path d="M75.5631 100.953H88.9529V68.5068H104.394V57.9398H60.0234V68.5068H75.5631V100.953Z" fill="#007D6D"/>
</svg>
