<svg width="143" height="143" viewBox="0 0 143 143" fill="none" xmlns="http://www.w3.org/2000/svg">
<path d="M107.862 47.0645V30.0399C112.306 27.9406 115.419 23.445 115.419 18.2275V17.8341C115.419 10.6342 109.528 4.74315 102.328 4.74315H101.935C94.735 4.74315 88.8436 10.6342 88.8436 17.8341V18.2275C88.8436 23.445 91.9578 27.9412 96.4014 30.0402V47.0648C89.7851 48.087 83.7397 50.8157 78.7517 54.8316L32.0085 18.4698C32.316 17.2857 32.5319 16.0656 32.5333 14.7854C32.5438 6.6301 25.9413 0.0105573 17.7857 1.17974e-05C9.6301 -0.0101863 3.01054 6.59258 3.00001 14.7479C2.99015 22.9031 9.59257 29.5227 17.7482 29.5329C20.4061 29.5362 22.866 28.7813 25.0222 27.5551L71.0036 63.325C67.0927 69.2275 64.8028 76.2981 64.8028 83.9092C64.8028 91.8782 67.3198 99.2483 71.5744 105.311L57.5906 119.295C56.4852 118.963 55.3376 118.731 54.1235 118.731C47.4223 118.731 41.9892 124.164 41.9892 130.866C41.9892 137.567 47.4223 143 54.1235 143C60.8254 143 66.2578 137.567 66.2578 130.866C66.2578 129.652 66.0261 128.504 65.6943 127.399L79.5266 113.567C85.8051 118.36 93.6236 121.239 102.133 121.239C122.749 121.239 139.461 104.526 139.461 83.9092C139.461 65.2462 125.751 49.8274 107.862 47.0645ZM102.133 103.048C91.5628 103.048 82.9931 94.4792 82.9931 83.9092C82.9931 73.3396 91.5628 64.7708 102.133 64.7708C112.701 64.7708 121.271 73.3396 121.271 83.9092C121.271 94.4792 112.701 103.048 102.133 103.048Z" fill="#FF5C35"/>
</svg>
