<svg width="44" height="44" viewBox="0 0 44 44" fill="none" xmlns="http://www.w3.org/2000/svg">
<path d="M39.7735 22.6676C38.6145 22.6676 37.6718 21.7246 37.6718 20.5656C37.6718 19.4061 38.6145 18.4631 39.7735 18.4631C40.9325 18.4631 41.876 19.4061 41.876 20.5656C41.876 21.7246 40.9325 22.6676 39.7735 22.6676ZM23.6648 22.6676C22.5058 22.6676 21.5626 21.7246 21.5626 20.5656C21.5626 19.4061 22.5058 18.4631 23.6648 18.4631C24.8241 18.4631 25.7673 19.4061 25.7673 20.5656C25.7673 21.7246 24.8241 22.6676 23.6648 22.6676ZM39.99 16.6231C38.5165 16.5439 37.207 17.2785 36.4671 18.4169C35.7937 19.4528 34.5909 20.0206 33.3553 20.0206H30.0846C28.8487 20.0206 27.6454 19.4526 26.9717 18.4166C26.2313 17.278 24.9213 16.5436 23.4472 16.6231C21.4187 16.7327 19.7566 18.457 19.7175 20.4883C19.675 22.7003 21.462 24.5134 23.6648 24.5134C24.8941 24.5134 25.9918 23.9481 26.7153 23.064C27.3626 22.2736 28.3689 21.8664 29.3906 21.8664H34.0485C35.0702 21.8664 36.0765 22.2736 36.7235 23.064C37.447 23.9481 38.5445 24.5134 39.7735 24.5134C41.9763 24.5134 43.7641 22.6998 43.721 20.4872C43.6814 18.456 42.0188 16.7322 39.99 16.6231Z" fill="currentColor"/>
<path d="M18.0785 12.608C20.1002 12.608 22.0931 13.3062 23.6896 14.5742C24.2592 15.0263 25.0876 14.9326 25.5421 14.3614C25.9944 13.7916 25.8993 12.9621 25.3295 12.5092C23.2684 10.8726 20.6938 9.97155 18.0785 9.97155C11.6576 9.97155 6.43359 15.1953 6.43359 21.6161C6.43359 28.0372 11.6576 33.2612 18.0785 33.2612C21.407 33.2612 24.5798 31.8387 26.7832 29.3578C27.2664 28.8135 27.2176 27.9804 26.6731 27.4969C26.1278 27.0129 25.2954 27.0638 24.8122 27.607C23.1082 29.5244 20.6539 30.6245 18.0785 30.6245C13.1113 30.6245 9.07031 26.5835 9.07031 21.6161C9.07031 16.649 13.1113 12.608 18.0785 12.608Z" fill="currentColor"/>
<path d="M33.2915 24.1142C32.5569 23.9383 31.813 24.3885 31.634 25.1255C30.0152 31.8149 24.0734 36.487 17.1839 36.487C10.2432 36.487 4.29108 31.7721 2.70958 25.021C2.53688 24.2824 1.7967 23.825 1.05995 23.9975C0.32162 24.1704 -0.136273 24.909 0.0364276 25.6471C1.91025 33.6459 8.96165 39.2325 17.1839 39.2325C25.3449 39.2325 32.3847 33.6966 34.3029 25.7709C34.4811 25.0344 34.0283 24.2924 33.2915 24.1142Z" fill="currentColor"/>
<path d="M1.28779 18.0055C1.42589 18.0493 1.56559 18.0702 1.70343 18.0702C2.28543 18.0702 2.82598 17.6968 3.01136 17.1124C4.97945 10.9116 10.6759 6.74514 17.1862 6.74514C23.4798 6.74514 29.116 10.7297 31.2106 16.6595C31.2246 16.7089 31.2394 16.758 31.2563 16.8064C31.5061 17.5217 32.287 17.8999 33.0042 17.6472C33.7201 17.3976 34.0974 16.612 33.8473 15.8967C33.8333 15.8473 33.8186 15.7979 33.7998 15.7448C31.3178 8.71984 24.6409 3.9999 17.1862 3.9999C9.47415 3.9999 2.72643 8.93558 0.39471 16.2819C0.165499 17.0044 0.565297 17.7763 1.28779 18.0055Z" fill="currentColor"/>
</svg>
