<svg width="143" height="143" viewBox="0 0 143 143" fill="none" xmlns="http://www.w3.org/2000/svg">
<path d="M68.805 0.483585C70.6394 0.0794469 73.5147 0.23226 75.3593 0.586794V0.586794C79.0829 1.30249 81.1491 4.08715 81.6765 7.8421C81.9031 9.45536 81.8773 11.0777 81.7439 12.8306C81.5888 14.8681 80.6303 16.7556 79.1574 18.1718V18.1718C76.1447 21.2716 76.2122 23.0586 76.0687 27.3159C76.0145 28.6058 75.9603 29.8956 75.9044 31.2245C75.8699 32.5654 75.8354 33.9063 75.7999 35.2877C75.7477 36.6463 75.6955 38.0048 75.6417 39.4044C75.5963 40.6097 75.5536 41.8149 75.5134 43.0201C75.3882 46.7769 77.4145 50.1991 81.1473 50.6413V50.6413C82.9902 50.8597 85.3508 50.4316 86.8276 49.3077C91.6563 45.6326 95.2302 41.5409 99.0897 36.6477C99.5477 36.067 100.233 35.5399 100.895 35.2103V35.2103C102.197 34.5624 103.053 33.43 103.35 32.0066C103.794 29.8825 104.136 27.7533 104.465 25.6046C104.65 24.3944 104.918 23.1922 105.381 22.059C105.517 21.7272 105.645 21.4495 105.784 21.2043C107.092 18.8851 110.03 17.9688 112.678 17.6936C114.154 17.5403 115.532 17.6292 116.995 17.9036C119.791 18.428 122.49 19.9554 123.993 22.3706V22.3706C125.602 24.9561 125.567 28.2515 124.6 31.1393C124.137 32.522 123.582 33.7531 122.822 34.961C121.106 37.6923 117.902 38.971 114.69 39.2707V39.2707C107.855 40.5323 104.464 43.3291 99.7839 48.1283C99.0172 48.8306 98.2506 49.5329 97.4607 50.2565C95.539 52.0718 95.0685 52.5162 93.7575 54.5239C92.6818 56.1713 92.1308 58.802 92.2202 60.7676V60.7676C92.4295 65.3711 96.8718 67.6418 101.477 67.4822C103.62 67.4079 105.763 67.3281 107.906 67.2465C109.253 67.2121 110.6 67.1778 111.988 67.1424C113.284 67.0885 114.579 67.0345 115.915 66.9789C116.509 66.9591 117.104 66.9392 117.703 66.9192C118.919 66.8786 120.36 66.7314 121.498 66.3053V66.3053C126.187 64.5508 130.054 60.7877 135.029 61.3407V61.3407C139.093 61.7924 142.433 65.1037 142.888 69.1673C143.05 70.6196 143.02 72.0883 142.901 73.6617C142.743 75.7748 142.398 78.0559 140.926 79.5803C140.855 79.6536 140.782 79.7239 140.705 79.7924C139.145 81.1744 136.936 81.5364 134.853 81.6014C132.922 81.6616 131.02 81.6323 129.083 81.5634C127.038 81.4907 125.207 80.2897 124.289 78.461V78.461C123.326 76.5434 121.362 75.3312 119.216 75.3312C116.083 75.3312 112.947 75.3312 109.796 75.3312C100.29 75.3312 88.9805 82.9659 95.0227 90.305C95.1108 90.412 95.2008 90.5213 95.2929 90.6329C96.7583 92.0956 98.2568 93.5261 99.7839 94.925C100.503 95.6626 101.223 96.4002 101.964 97.1602C105.806 100.85 109.098 102.525 113.237 103.408C117.394 104.295 122.001 104.945 124.011 108.691V108.691C125.222 110.949 125.827 113.749 125.473 116.287C125.419 116.673 125.35 117.043 125.264 117.399C124.059 122.398 118.634 125.462 113.491 125.49V125.49C109.005 125.514 104.547 122.419 104.144 117.951C104.096 117.419 104.049 116.806 103.994 116.088C102.511 108.683 99.4712 105.558 94.1462 100.442C93.3549 99.606 92.5637 98.7703 91.7484 97.9092C89.6473 95.7374 89.2131 95.2887 86.8239 93.6478C85.3145 92.6111 82.8944 92.0266 81.0654 92.1149V92.1149C77.1342 92.3047 75.3884 96.2397 75.522 100.173C75.6079 102.704 75.7026 105.235 75.7999 107.766C75.8516 109.777 75.8516 109.777 75.9044 111.829C75.9586 113.119 76.0128 114.408 76.0687 115.737C76.0885 116.326 76.1083 116.915 76.1283 117.508C76.1693 118.724 76.2664 119.953 76.6736 121.1C76.7004 121.175 76.7277 121.249 76.7556 121.322C78.4783 125.846 82.2092 129.727 81.7491 134.546V134.546C81.3505 138.72 77.9789 142.07 73.8404 142.743C72.6451 142.938 71.4394 143.018 70.2133 142.997C66.5304 142.934 62.6098 141.267 61.1589 137.882C61.1258 137.804 61.0927 137.725 61.0596 137.643C60.2824 135.723 60.0349 133.621 60.1823 131.555C60.2789 130.201 60.4287 129.365 60.7948 128.071C61.2588 126.432 62.3201 125.049 63.7392 124.108V124.108C65.2788 123.086 66.5045 121.535 66.7818 119.708C66.9245 118.768 66.9266 117.899 66.9313 115.886C66.9855 114.591 67.0397 113.296 67.0956 111.962C67.1301 110.609 67.1645 109.255 67.2001 107.861C67.2523 106.495 67.3045 105.13 67.3583 103.723C67.3878 102.936 67.4161 102.148 67.4434 101.361C67.6017 96.7854 65.3288 92.3893 60.7564 92.1649V92.1649C58.7387 92.0658 56.0556 92.6407 54.4194 93.8255C52.0933 95.5098 50.2622 97.1395 48.0894 99.4905C47.3512 100.251 46.613 101.011 45.8524 101.794C42.0356 105.954 40.0732 109.538 38.8332 113.747C37.2246 119.208 34.8557 125.216 29.1661 125.398V125.398C27.4974 125.451 25.4849 125.147 23.8973 124.63C23.6895 124.562 23.4967 124.497 23.3159 124.433C19.9564 123.24 17.6199 119.841 17.4084 116.282C17.3101 114.626 17.5888 113.026 18.0891 111.136C18.4995 109.586 19.1806 107.916 20.1808 106.663V106.663C21.8889 104.521 24.7554 104.093 27.4786 103.797C27.795 103.763 28.1598 103.723 28.5964 103.676C34.2076 103.262 34.2076 103.262 37.2918 99.2052V99.2052C39.1934 96.4921 41.4644 94.0562 44.0561 91.9923C44.217 91.8642 44.3779 91.7361 44.5388 91.6081C46.704 89.8866 48.947 88.1246 50.3395 85.7345C51.2897 84.1034 51.0349 82.9619 50.2871 79.6114V79.6114C49.732 77.1248 47.4944 75.3775 44.9478 75.4576C41.6629 75.5609 38.3787 75.6817 35.0941 75.8068C33.747 75.8412 32.4 75.8755 31.0121 75.9109C29.7163 75.9648 28.4205 76.0188 27.0855 76.0743C26.4907 76.0942 25.8959 76.1141 25.2966 76.1341C24.0814 76.1747 22.6405 76.3218 21.5017 76.748V76.748C16.8128 78.5025 12.9464 82.2656 7.97068 81.7126V81.7126C3.90667 81.2609 0.566833 77.9496 0.112212 73.886C-0.0458088 72.4735 -0.0212774 71.0454 0.089052 69.5206C0.247932 67.3247 0.642465 64.9614 2.20622 63.4116V63.4116C3.75844 61.8733 6.11215 61.484 8.29006 61.3037C9.90185 61.1702 10.8992 61.1744 12.5493 61.3162C14.5855 61.4912 16.476 62.4377 17.8993 63.9044V63.9044C21.0133 66.9032 22.8086 66.8361 27.0855 66.9789C28.3813 67.0329 29.6771 67.0868 31.0121 67.1424C33.0327 67.1939 33.0327 67.1939 35.0941 67.2465C37.1412 67.3244 37.1412 67.3244 39.2297 67.404C40.4511 67.4495 41.6725 67.4924 42.8938 67.5327C46.7431 67.6597 50.5949 65.9501 50.8061 62.1045V62.1045C50.9098 60.2151 50.2813 57.752 49.1218 56.2568C47.1009 53.6509 45.1206 51.4925 42.5472 49.0795C41.7678 48.2751 40.9883 47.4708 40.1853 46.6421C36.0991 42.6704 32.4722 40.6256 28.0748 39.2051C23.1141 37.6026 17.4948 35.6283 17.2862 30.4195V30.4195C17.1924 28.0768 17.5279 25.34 18.4924 23.203C18.5841 22.9998 18.6778 22.8119 18.777 22.634C20.3657 19.7845 23.688 18.1775 26.9254 17.7733C28.6276 17.5607 30.1822 17.7715 32.2082 18.3971C33.4386 18.777 34.7936 19.4467 35.8312 20.2093V20.2093C38.2742 22.0049 38.7563 25.1756 38.9978 28.1978C39.0064 28.3059 39.015 28.4142 39.0237 28.5227C40.3683 35.2991 43.1756 38.7168 47.9938 43.3725C48.6993 44.1357 49.4049 44.8988 50.1318 45.685C51.9097 47.55 52.3786 48.0419 54.27 49.2746C56 50.4021 58.0679 50.8265 60.1125 50.5357V50.5357C64.4362 49.9209 67.6779 46.2149 67.6779 41.8477C67.6779 36.1736 67.6779 30.4724 67.6779 24.6839C67.6779 22.1481 66.2662 19.8423 63.9961 18.7124V18.7124C62.4497 17.9428 61.2034 16.6038 60.6806 14.9575C60.318 13.8154 60.1586 13.0284 60.0885 11.9159C59.9421 9.59168 60.5258 7.24519 61.7868 5.28728C63.6005 2.47133 65.3203 1.25133 68.805 0.483585ZM62.6631 59.5966C59.6771 61.6603 57.3627 64.7606 56.8382 68.3522C56.7919 68.6692 56.7547 68.9861 56.7257 69.3039C56.273 74.2476 57.9717 79.363 61.5493 82.8049V82.8049C64.2038 85.3587 68.029 86.3476 71.7116 86.2665C72.3986 86.2513 73.0668 86.2094 73.7276 86.1346C78.9447 85.5439 83.6424 81.8951 85.2602 76.9001C85.5982 75.8567 85.8274 74.7857 85.9667 73.6579C86.4491 69.7532 85.4786 65.5498 83.1039 62.4128V62.4128C79.7739 58.0139 73.9043 56.0557 68.4857 57.0941C66.4093 57.492 64.5634 58.2832 62.6631 59.5966Z" fill="currentColor"/>
</svg>
