<svg width="30" height="30" viewBox="0 0 30 30" fill="none" xmlns="http://www.w3.org/2000/svg">
<path d="M22.8235 19.8614C22.4037 19.7965 22.003 19.8551 21.6515 20.0048C21.1415 20.2221 20.5514 20.1247 20.1543 19.7406L19.4485 19.058C18.8739 18.5026 18.5506 17.7416 18.5506 16.9463V13.7263C18.5506 13.1556 18.7828 12.6092 19.1954 12.2097L21.0295 10.4361C21.3255 10.1494 21.7398 9.99787 22.1478 10.0637C22.3873 10.1025 22.6414 10.1007 22.9019 10.0493C23.7652 9.88065 24.4491 9.17644 24.5784 8.31442C24.7924 6.89066 23.5594 5.68601 22.1178 5.92496C21.218 6.07463 20.5049 6.81041 20.3847 7.70579C20.3428 8.02138 20.3711 8.32615 20.4576 8.60567C20.6179 9.12324 20.4576 9.68499 20.066 10.0628L19.1535 10.9455C18.6845 11.3991 18.0543 11.6534 17.3986 11.6534H12.9636C12.2122 11.6534 11.4919 11.3621 10.9546 10.8428L9.82351 9.74901C9.47108 9.40817 9.29714 8.91404 9.40278 8.43795C9.45469 8.20352 9.46652 7.95465 9.43101 7.69677C9.30442 6.79689 8.58316 6.06201 7.67703 5.92135C6.2345 5.69683 5.00963 6.91501 5.24368 8.34418C5.39121 9.24587 6.14617 9.9591 7.06141 10.0727C7.3255 10.1061 7.58141 10.0898 7.82183 10.033C8.28446 9.92393 8.77167 10.033 9.11227 10.3631L10.2643 11.4766C10.9273 12.1177 11.3006 12.996 11.3006 13.913V17.2312C11.3006 18.068 10.96 18.8696 10.3554 19.4548L9.85265 19.9408C9.4647 20.3159 8.87003 20.3925 8.40284 20.1202C8.01307 19.893 7.54316 19.7866 7.04501 19.8515C6.1234 19.9723 5.37391 20.7018 5.23913 21.6125C5.01783 23.1066 6.38932 24.3581 7.922 23.9497C8.83997 23.7053 9.45377 22.8451 9.45377 21.9037V21.8992C9.45377 21.727 9.5239 21.562 9.64866 21.4412L11.562 19.5909C12.0656 19.1031 12.7423 18.8308 13.4471 18.8308H16.9988C17.5589 18.8308 18.0962 19.0472 18.4969 19.4349L19.842 20.7361C20.1671 21.0507 20.3683 21.4781 20.3683 21.9281C20.3683 22.0742 20.3838 22.2238 20.4166 22.3762C20.6006 23.2229 21.3136 23.8856 22.1788 24.0065C23.6095 24.2057 24.8161 22.9885 24.5748 21.5656C24.4263 20.6928 23.7087 19.994 22.8254 19.8587L22.8235 19.8614Z" fill="url(#paint0_linear_11131_40)"/>
<path d="M14.9413 7.73828C16.0679 7.73828 16.9812 6.834 16.9812 5.71851C16.9812 4.60302 16.0679 3.69873 14.9413 3.69873C13.8147 3.69873 12.9014 4.60302 12.9014 5.71851C12.9014 6.834 13.8147 7.73828 14.9413 7.73828Z" fill="url(#paint1_linear_11131_40)"/>
<path d="M24.7665 17.2483C25.8931 17.2483 26.8064 16.344 26.8064 15.2285C26.8064 14.113 25.8931 13.2087 24.7665 13.2087C23.6399 13.2087 22.7266 14.113 22.7266 15.2285C22.7266 16.344 23.6399 17.2483 24.7665 17.2483Z" fill="url(#paint2_linear_11131_40)"/>
<path d="M5.74501 17.2483C6.87164 17.2483 7.78495 16.344 7.78495 15.2285C7.78495 14.113 6.87164 13.2087 5.74501 13.2087C4.61839 13.2087 3.70508 14.113 3.70508 15.2285C3.70508 16.344 4.61839 17.2483 5.74501 17.2483Z" fill="url(#paint3_linear_11131_40)"/>
<path d="M15.5302 26.964C16.6568 26.964 17.5701 26.0597 17.5701 24.9442C17.5701 23.8287 16.6568 22.9244 15.5302 22.9244C14.4035 22.9244 13.4902 23.8287 13.4902 24.9442C13.4902 26.0597 14.4035 26.964 15.5302 26.964Z" fill="url(#paint4_linear_11131_40)"/>
<path d="M2.44883 10.3496C2.44883 11.0186 1.9006 11.5614 1.22487 11.5614C0.549143 11.5614 0 11.0186 0 10.3496C0 9.68051 0.548232 9.1377 1.22396 9.1377C1.89969 9.1377 2.44792 9.68051 2.44792 10.3496H2.44883Z" fill="url(#paint5_linear_11131_40)"/>
<path d="M11.112 1.21187C11.112 1.88092 10.5638 2.42373 9.88802 2.42373C9.21229 2.42373 8.66406 1.88092 8.66406 1.21187C8.66406 0.542815 9.21138 0 9.88711 0C10.5628 0 11.1111 0.542815 11.1111 1.21187H11.112Z" fill="url(#paint6_linear_11131_40)"/>
<path d="M19.682 2.88992C20.3579 2.88992 20.9059 2.34735 20.9059 1.67805C20.9059 1.00876 20.3579 0.466187 19.682 0.466187C19.006 0.466187 18.458 1.00876 18.458 1.67805C18.458 2.34735 19.006 2.88992 19.682 2.88992Z" fill="url(#paint7_linear_11131_40)"/>
<path d="M29.7575 9.69673C29.7575 10.3658 29.2093 10.9086 28.5335 10.9086C27.8578 10.9086 27.3096 10.3658 27.3096 9.69673C27.3096 9.02768 27.8578 8.48486 28.5335 8.48486C29.2093 8.48486 29.7575 9.02768 29.7575 9.69673Z" fill="url(#paint8_linear_11131_40)"/>
<path d="M29.946 20.9786C29.946 21.6476 29.3977 22.1905 28.722 22.1905C28.0463 22.1905 27.498 21.6476 27.498 20.9786C27.498 20.3095 28.0463 19.7667 28.722 19.7667C29.3977 19.7667 29.946 20.3095 29.946 20.9786Z" fill="url(#paint9_linear_11131_40)"/>
<path d="M22.1091 28.7882C22.1091 29.4572 21.5608 30 20.8851 30C20.2094 30 19.6611 29.4572 19.6611 28.7882C19.6611 28.1191 20.2094 27.5763 20.8851 27.5763C21.5608 27.5763 22.1091 28.1191 22.1091 28.7882Z" fill="url(#paint10_linear_11131_40)"/>
<path d="M11.4919 28.4032C11.4919 29.0722 10.9436 29.615 10.2679 29.615C9.59218 29.615 9.04395 29.0722 9.04395 28.4032C9.04395 27.7341 9.59218 27.1913 10.2679 27.1913C10.9436 27.1913 11.4919 27.7341 11.4919 28.4032Z" fill="url(#paint11_linear_11131_40)"/>
<path d="M2.5778 19.7524C2.5778 20.4214 2.02957 20.9643 1.35384 20.9643C0.678115 20.9643 0.129883 20.4214 0.129883 19.7524C0.129883 19.0833 0.678115 18.5405 1.35384 18.5405C2.02957 18.5405 2.5778 19.0833 2.5778 19.7524Z" fill="url(#paint12_linear_11131_40)"/>
<path d="M15.2563 22.1995C19.1376 22.1995 22.284 19.0841 22.284 15.2411C22.284 11.3982 19.1376 8.28284 15.2563 8.28284C11.3749 8.28284 8.22852 11.3982 8.22852 15.2411C8.22852 19.0841 11.3749 22.1995 15.2563 22.1995Z" fill="#FF8946"/>
<path d="M17.4645 18.4377C18.4885 18.4377 19.3187 17.6157 19.3187 16.6018C19.3187 15.5879 18.4885 14.766 17.4645 14.766C16.4405 14.766 15.6104 15.5879 15.6104 16.6018C15.6104 17.6157 16.4405 18.4377 17.4645 18.4377Z" fill="white"/>
<path d="M16.3717 13.3277C16.8623 12.4863 16.5711 11.4104 15.7213 10.9246C14.8715 10.4389 13.7849 10.7271 13.2942 11.5685L10.8063 15.8353C10.3156 16.6767 10.6068 17.7526 11.4566 18.2384C12.3064 18.7242 13.393 18.4359 13.8837 17.5945L16.3717 13.3277Z" fill="white"/>
<defs>
<linearGradient id="paint0_linear_11131_40" x1="24.1176" y1="30.5166" x2="5.19828" y2="-2.08004" gradientUnits="userSpaceOnUse">
<stop stop-color="#00CCD3"/>
<stop offset="0.13" stop-color="#04C3D3"/>
<stop offset="0.34" stop-color="#0FADD3"/>
<stop offset="0.59" stop-color="#2189D4"/>
<stop offset="0.89" stop-color="#3A57D5"/>
<stop offset="1" stop-color="#4542D6"/>
</linearGradient>
<linearGradient id="paint1_linear_11131_40" x1="28.2145" y1="28.138" x2="9.29519" y2="-4.45865" gradientUnits="userSpaceOnUse">
<stop stop-color="#00CCD3"/>
<stop offset="0.13" stop-color="#04C3D3"/>
<stop offset="0.34" stop-color="#0FADD3"/>
<stop offset="0.59" stop-color="#2189D4"/>
<stop offset="0.89" stop-color="#3A57D5"/>
<stop offset="1" stop-color="#4542D6"/>
</linearGradient>
<linearGradient id="paint2_linear_11131_40" x1="31.3371" y1="26.3265" x2="12.4178" y2="-6.27021" gradientUnits="userSpaceOnUse">
<stop stop-color="#00CCD3"/>
<stop offset="0.13" stop-color="#04C3D3"/>
<stop offset="0.34" stop-color="#0FADD3"/>
<stop offset="0.59" stop-color="#2189D4"/>
<stop offset="0.89" stop-color="#3A57D5"/>
<stop offset="1" stop-color="#4542D6"/>
</linearGradient>
<linearGradient id="paint3_linear_11131_40" x1="17.1796" y1="34.5435" x2="-1.73976" y2="1.94685" gradientUnits="userSpaceOnUse">
<stop stop-color="#00CCD3"/>
<stop offset="0.13" stop-color="#04C3D3"/>
<stop offset="0.34" stop-color="#0FADD3"/>
<stop offset="0.59" stop-color="#2189D4"/>
<stop offset="0.89" stop-color="#3A57D5"/>
<stop offset="1" stop-color="#4542D6"/>
</linearGradient>
<linearGradient id="paint4_linear_11131_40" x1="20.181" y1="32.8006" x2="1.26169" y2="0.204828" gradientUnits="userSpaceOnUse">
<stop stop-color="#00CCD3"/>
<stop offset="0.13" stop-color="#04C3D3"/>
<stop offset="0.34" stop-color="#0FADD3"/>
<stop offset="0.59" stop-color="#2189D4"/>
<stop offset="0.89" stop-color="#3A57D5"/>
<stop offset="1" stop-color="#4542D6"/>
</linearGradient>
<linearGradient id="paint5_linear_11131_40" x1="15.9652" y1="35.2478" x2="-2.95413" y2="2.65114" gradientUnits="userSpaceOnUse">
<stop stop-color="#00CCD3"/>
<stop offset="0.13" stop-color="#04C3D3"/>
<stop offset="0.34" stop-color="#0FADD3"/>
<stop offset="0.59" stop-color="#2189D4"/>
<stop offset="0.89" stop-color="#3A57D5"/>
<stop offset="1" stop-color="#4542D6"/>
</linearGradient>
<linearGradient id="paint6_linear_11131_40" x1="26.4397" y1="29.1686" x2="7.52038" y2="-3.42804" gradientUnits="userSpaceOnUse">
<stop stop-color="#00CCD3"/>
<stop offset="0.13" stop-color="#04C3D3"/>
<stop offset="0.34" stop-color="#0FADD3"/>
<stop offset="0.59" stop-color="#2189D4"/>
<stop offset="0.89" stop-color="#3A57D5"/>
<stop offset="1" stop-color="#4542D6"/>
</linearGradient>
<linearGradient id="paint7_linear_11131_40" x1="33.5235" y1="25.057" x2="14.6041" y2="-7.53882" gradientUnits="userSpaceOnUse">
<stop stop-color="#00CCD3"/>
<stop offset="0.13" stop-color="#04C3D3"/>
<stop offset="0.34" stop-color="#0FADD3"/>
<stop offset="0.59" stop-color="#2189D4"/>
<stop offset="0.89" stop-color="#3A57D5"/>
<stop offset="1" stop-color="#4542D6"/>
</linearGradient>
<linearGradient id="paint8_linear_11131_40" x1="36.5776" y1="23.2842" x2="17.6583" y2="-9.31245" gradientUnits="userSpaceOnUse">
<stop stop-color="#00CCD3"/>
<stop offset="0.13" stop-color="#04C3D3"/>
<stop offset="0.34" stop-color="#0FADD3"/>
<stop offset="0.59" stop-color="#2189D4"/>
<stop offset="0.89" stop-color="#3A57D5"/>
<stop offset="1" stop-color="#4542D6"/>
</linearGradient>
<linearGradient id="paint9_linear_11131_40" x1="31.7464" y1="26.0884" x2="12.827" y2="-6.50823" gradientUnits="userSpaceOnUse">
<stop stop-color="#00CCD3"/>
<stop offset="0.13" stop-color="#04C3D3"/>
<stop offset="0.34" stop-color="#0FADD3"/>
<stop offset="0.59" stop-color="#2189D4"/>
<stop offset="0.89" stop-color="#3A57D5"/>
<stop offset="1" stop-color="#4542D6"/>
</linearGradient>
<linearGradient id="paint10_linear_11131_40" x1="22.4733" y1="31.4707" x2="3.55398" y2="-1.12511" gradientUnits="userSpaceOnUse">
<stop stop-color="#00CCD3"/>
<stop offset="0.13" stop-color="#04C3D3"/>
<stop offset="0.34" stop-color="#0FADD3"/>
<stop offset="0.59" stop-color="#2189D4"/>
<stop offset="0.89" stop-color="#3A57D5"/>
<stop offset="1" stop-color="#4542D6"/>
</linearGradient>
<linearGradient id="paint11_linear_11131_40" x1="14.7412" y1="35.9584" x2="-4.17816" y2="3.36169" gradientUnits="userSpaceOnUse">
<stop stop-color="#00CCD3"/>
<stop offset="0.13" stop-color="#04C3D3"/>
<stop offset="0.34" stop-color="#0FADD3"/>
<stop offset="0.59" stop-color="#2189D4"/>
<stop offset="0.89" stop-color="#3A57D5"/>
<stop offset="1" stop-color="#4542D6"/>
</linearGradient>
<linearGradient id="paint12_linear_11131_40" x1="11.9187" y1="37.5968" x2="-7.00065" y2="5.00008" gradientUnits="userSpaceOnUse">
<stop stop-color="#00CCD3"/>
<stop offset="0.13" stop-color="#04C3D3"/>
<stop offset="0.34" stop-color="#0FADD3"/>
<stop offset="0.59" stop-color="#2189D4"/>
<stop offset="0.89" stop-color="#3A57D5"/>
<stop offset="1" stop-color="#4542D6"/>
</linearGradient>
</defs>
</svg>
