<svg width="21" height="21" viewBox="0 0 21 21" fill="none" xmlns="http://www.w3.org/2000/svg">
<g clip-path="url(#clip0_23_364)">
<path d="M1.50937 7.33359C2.01797 7.57969 2.6332 7.36231 2.8793 6.85371C3.56015 5.43867 4.61836 4.24102 5.94316 3.38789C7.30078 2.51426 8.87578 2.05078 10.5 2.05078C15.1594 2.05078 18.9492 5.84062 18.9492 10.5C18.9492 15.1594 15.1594 18.9492 10.5 18.9492C8.87578 18.9492 7.30078 18.4857 5.93906 17.6162C4.61426 16.7672 3.55605 15.5654 2.8752 14.1504C2.6291 13.6418 2.01797 13.4244 1.50527 13.6705C0.996679 13.9166 0.779296 14.5277 1.02539 15.0404C1.87031 16.8 3.18281 18.2889 4.83164 19.343C6.52148 20.4258 8.48203 21 10.5 21C13.3055 21 15.9428 19.909 17.9238 17.9238C19.909 15.9428 21 13.3055 21 10.5C21 7.69453 19.909 5.05723 17.9238 3.07617C15.9387 1.09101 13.3055 -1.23467e-06 10.5 -9.89409e-07C8.48203 -8.12993e-07 6.52148 0.574218 4.83164 1.66113C3.18691 2.71934 1.87031 4.2082 1.02539 5.96367C0.783396 6.47637 0.996678 7.0875 1.50937 7.33359Z" fill="currentColor"/>
<path d="M9.9545 6.50915C9.75353 6.30818 9.49103 6.20974 9.22853 6.20974C8.96603 6.20974 8.70353 6.30818 8.50255 6.50915L5.92267 9.08904C5.54532 9.46638 5.34025 9.96677 5.34025 10.4959C5.34025 11.025 5.54943 11.5295 5.92267 11.9027L8.50255 14.4826C8.9045 14.8845 9.55255 14.8845 9.95451 14.4826C10.3565 14.0806 10.3565 13.4326 9.95451 13.0306L8.44103 11.5172L14.2693 11.5172C14.8354 11.5172 15.2947 11.0578 15.2947 10.4918C15.2947 9.92576 14.8354 9.46638 14.2693 9.46638L8.43693 9.46638L9.9504 7.9529C10.3524 7.55915 10.3524 6.91111 9.9545 6.50915Z" fill="currentColor"/>
</g>
<defs>
<clipPath id="clip0_23_364">
<rect width="21" height="21" fill="white" transform="translate(21 21) rotate(180)"/>
</clipPath>
</defs>
</svg>
