<svg width="196" height="196" viewBox="0 0 196 196" fill="none" xmlns="http://www.w3.org/2000/svg">
<path d="M96.7363 33.1937C97.3029 33.0334 97.9068 32.9104 98.4865 33.0856C112.181 36.6699 125.495 41.5814 138.513 47.1173C139.761 47.6746 141.053 48.1368 142.259 48.7873C141.262 55.8684 140.188 62.9402 139.288 70.0324C140.462 69.4826 141.549 68.7706 142.686 68.148C148.582 64.8023 154.611 61.6895 160.757 58.8246C161.294 58.6009 161.911 58.1461 162.488 58.5301C172.764 63.6671 182.757 69.3502 192.649 75.1862C193.706 75.8256 194.785 76.4257 195.815 77.1079C192.615 79.4341 189.366 81.6969 186.198 84.0697C175.952 91.6895 166.043 99.764 156.464 108.208C155.899 108.795 155.074 108.299 154.406 108.206C137.506 104.318 120.472 101.026 103.346 98.3027C101.631 98.0735 99.931 97.7118 98.205 97.5814C98.8295 98.1872 99.5527 98.6736 100.261 99.1732C111.968 107.71 123.495 116.497 134.734 125.641C135.077 125.924 135.413 126.217 135.752 126.508C134.432 127.904 132.949 129.132 131.597 130.497C120.621 140.951 109.631 151.397 98.6598 161.861C98.4138 162.077 98.164 162.29 97.9143 162.504C96.9972 161.798 96.2255 160.931 95.3942 160.133C76.3542 141.794 57.1351 123.622 37.1724 106.282C37.5061 105.475 37.8975 104.694 38.3057 103.922C43.5378 93.6634 48.8369 83.4304 54.63 73.4733C55.2134 72.4351 55.9124 71.4602 56.4063 70.3735C55.4352 70.7985 54.5387 71.3689 53.6198 71.8945C42.9357 78.0511 32.4548 84.5543 22.1454 91.3186C21.5881 91.6671 21.0755 92.1294 20.4306 92.3102C19.8155 91.9542 19.3066 91.4453 18.7493 91.011C13.2321 86.5935 7.51724 82.4276 1.69245 78.4276C1.12022 78.038 0.553588 77.641 0 77.2235C1.17428 76.3586 2.49021 75.7156 3.72787 74.9458C20.2293 65.2198 37.1258 56.1256 54.6076 48.2803C55.3402 47.9411 56.0876 47.5404 56.9189 47.546C69.1706 47.559 81.4222 48.0324 93.6403 48.9327C94.8686 49.0017 96.0932 49.1881 97.3253 49.1284C96.9748 48.9141 96.617 48.7128 96.2404 48.5506C89.0009 45.5926 81.6533 42.901 74.2349 40.4295C75.3607 39.9057 76.5648 39.587 77.7316 39.1732C84.0224 37.0408 90.3225 34.9271 96.7363 33.1937ZM97.4166 49.5031C86.9245 54.1387 76.6412 59.244 66.5424 64.6811C63.2656 66.4835 59.9553 68.2338 56.74 70.1443C57.5396 70.6718 58.3709 71.1471 59.1948 71.6354C66.1827 75.8181 73.0233 80.2412 79.7726 84.7948C85.9049 88.9066 91.9124 93.2011 97.9404 97.4621C98.9301 96.8302 99.8546 96.107 100.815 95.4323C112.52 87.0613 124.421 78.942 136.787 71.5683C137.579 71.1023 138.399 70.6755 139.128 70.107C126.125 62.2226 112.511 55.354 98.4865 49.4826C98.1417 49.3167 97.754 49.3297 97.4166 49.5031Z" fill="currentColor"/>
<path d="M93.8262 56.8694C98.4581 56.4425 103.176 56.7314 107.683 57.9132C110.574 58.6662 113.381 59.8106 115.877 61.4639C117.64 62.6438 119.248 64.1126 120.337 65.9486C121.463 67.833 121.966 70.1555 121.405 72.3083C120.792 74.8526 119.032 76.9514 117.014 78.5376C113.923 80.9253 110.205 82.3735 106.417 83.2179C100.19 84.5879 93.6193 84.4518 87.4628 82.7817C83.7237 81.7454 80.0779 80.0511 77.2391 77.354C75.3435 75.4658 73.8859 72.9122 74.007 70.1629C74.076 67.244 75.8225 64.6494 77.9809 62.806C82.4041 59.1061 88.1822 57.4658 93.8262 56.8694Z" fill="currentColor"/>
</svg>
