<svg width="22" height="22" viewBox="0 0 22 22" fill="none" xmlns="http://www.w3.org/2000/svg">
<path d="M19.9169 2.08314C19.2844 1.45064 18.3631 1.22376 17.5106 1.48501L3.07313 5.92626C2.07626 6.22876 1.41626 7.10189 1.38188 8.14002C1.34751 9.17814 1.95251 10.0925 2.92188 10.4638L5.44501 11.4331L5.03938 14.6575C4.95688 15.29 5.17688 15.9156 5.62376 16.3694C6.01564 16.7613 6.53126 16.9744 7.08126 16.9744C7.17064 16.9744 7.25314 16.9744 7.34251 16.9606L10.5669 16.555L11.5363 19.0781C11.9006 20.02 12.7669 20.6181 13.7706 20.6181H13.86C14.8981 20.5838 15.7644 19.9169 16.0738 18.9269L20.515 4.48251C20.7763 3.63001 20.5494 2.70876 19.9169 2.07626V2.08314ZM7.17064 15.5994C6.95751 15.6269 6.75126 15.5513 6.60001 15.4C6.44876 15.2488 6.38001 15.0425 6.40063 14.8294L6.75813 11.9419L9.13688 12.8563L10.0513 15.235L7.16376 15.5925L7.17064 15.5994ZM19.2019 4.08376L14.7606 18.5281C14.6025 19.0438 14.1694 19.2431 13.8119 19.25C13.4681 19.2569 13.0144 19.0988 12.8219 18.59L10.4775 12.4919L13.5506 9.41877C13.8188 9.15064 13.8188 8.71751 13.5506 8.44939C13.2825 8.18126 12.8494 8.18126 12.5813 8.44939L9.50813 11.5225L3.41688 9.17814C2.91501 8.98564 2.75001 8.53876 2.75688 8.18814C2.76376 7.83751 2.96313 7.39751 3.47876 7.23939L17.9231 2.79814C18.2944 2.68126 18.6794 2.77751 18.9544 3.05251C19.2294 3.32751 19.3256 3.71251 19.2088 4.07689L19.2019 4.08376Z" fill="currentColor"/>
</svg>
