<svg width="18" height="18" viewBox="0 0 18 18" fill="none" xmlns="http://www.w3.org/2000/svg">
<path d="M17.25 14.25H15.2527C14.928 13.1693 13.935 12.375 12.75 12.375C11.565 12.375 10.5728 13.1693 10.2473 14.25H0.749988C0.335988 14.25 0 14.586 0 15C0 15.414 0.335988 15.75 0.749988 15.75H10.2472C10.572 16.8307 11.565 17.625 12.75 17.625C13.935 17.625 14.9272 16.8307 15.2527 15.75H17.25C17.6647 15.75 18 15.414 18 15C18 14.586 17.6647 14.25 17.25 14.25ZM12.75 16.125C12.1297 16.125 11.625 15.6203 11.625 15C11.625 14.3797 12.1297 13.875 12.75 13.875C13.3703 13.875 13.875 14.3797 13.875 15C13.875 15.6203 13.3702 16.125 12.75 16.125Z" fill="currentColor"/>
<path d="M17.25 2.25H15.2527C14.9272 1.16927 13.935 0.375015 12.75 0.375015C11.565 0.375015 10.5728 1.16927 10.2472 2.25H0.749988C0.335988 2.25 0 2.58599 0 2.99999C0 3.41399 0.335988 3.74998 0.749988 3.74998H10.2472C10.5728 4.83075 11.565 5.625 12.75 5.625C13.935 5.625 14.9273 4.83075 15.2527 3.75002H17.25C17.6647 3.75002 18 3.41403 18 3.00003C18 2.58603 17.6647 2.25 17.25 2.25ZM12.75 4.12499C12.1297 4.12499 11.625 3.62025 11.625 2.99999C11.625 2.37973 12.1297 1.87499 12.75 1.87499C13.3703 1.87499 13.875 2.37973 13.875 2.99999C13.875 3.62025 13.3702 4.12499 12.75 4.12499Z" fill="currentColor"/>
<path d="M17.25 8.25002H7.75276C7.42725 7.16928 6.435 6.37503 5.25002 6.37503C4.06505 6.37503 3.07276 7.16928 2.74729 8.25002H0.749988C0.335988 8.25002 0 8.58601 0 9.00001C0 9.41401 0.335988 9.75 0.749988 9.75H2.74725C3.07276 10.8307 4.06501 11.625 5.24999 11.625C6.43496 11.625 7.42725 10.8307 7.75273 9.75H17.25C17.6647 9.75 18 9.41401 18 9.00001C18 8.58601 17.6647 8.25002 17.25 8.25002ZM5.24999 10.125C4.62973 10.125 4.12499 9.62027 4.12499 9.00001C4.12499 8.37975 4.62973 7.87501 5.24999 7.87501C5.87025 7.87501 6.37499 8.37975 6.37499 9.00001C6.37499 9.62027 5.87025 10.125 5.24999 10.125Z" fill="currentColor"/>
</svg>
